<svg xmlns="http://www.w3.org/2000/svg" id="Layer_1" x="0" y="0" version="1.1" viewBox="0 0 512 512" xml:space="preserve"><style>.st0{fill:url(#SVGID_1_)}.st1{opacity:.1;fill:#00c;enable-background:new}.st2{fill:#6c6cff}.st3{fill:#4d4dff}.st4{fill:#ff9d33}.st5{fill:#ff8b00}.st6{fill:#ff2c2c}.st7{fill:#fff}.st8{fill:#00c}.st9{fill:#ff6c6c}</style><linearGradient id="SVGID_1_" x1="223.035" x2="307.035" y1="688.119" y2="-407.881" gradientTransform="matrix(1 0 0 -1 0 514)" gradientUnits="userSpaceOnUse"><stop offset=".002" stop-color="#ffc599"/><stop offset=".992" stop-color="#ffe8dc" stop-opacity="0"/></linearGradient><path d="M512,256c0-27.6-12.5-53.5-34.3-75.8c-15.2-15.5-27.9-33.3-37.5-52.8C409.3,65.2,356.6,24.2,296.8,24.2	c-42.5,0-81.4,20.7-111.4,55c-19.9,22.7-45,40.1-73,51.4C44.6,157.8,0,203.8,0,256s44.6,98.2,112.4,125.4c28,11.2,53.1,28.7,73,51.4	c30,34.3,68.9,55,111.4,55c59.8,0,112.4-41,143.3-103.2c9.7-19.5,22.3-37.2,37.5-52.8C499.5,309.5,512,283.6,512,256z" class="st0"/><path d="M259.1,100.2c-102.7,0-185.9,83.2-185.9,185.9c0,18.3,2.7,36,7.6,52.8c-17.6,14.5-28.9,36.4-28.9,61	c0,43.6,35.3,78.9,78.9,78.9c21.2,0,40.4-8.4,54.6-22c22.6,9.7,47.5,15.2,73.6,15.2C361.8,472,445,388.8,445,286.1	S361.8,100.2,259.1,100.2L259.1,100.2z" class="st1"/><circle cx="259.1" cy="265.1" r="185.9" class="st2"/><ellipse cx="287.8" cy="376.4" class="st3" rx="34.9" ry="13.7"/><path d="M366.3,138l-3.8,22.9c-0.2,1.1-0.8,2-1.7,2.5l-21,12.4l-30.2,17.4c-0.6,0.3-1,0.8-1.3,1.3l-18,31.1	c-0.6,1-0.6,2.1-0.2,3.2l6.2,15.6c0,0.1,0.1,0.2,0.1,0.2l5.1,10.7c0.8,1.6,0.2,3.6-1.3,4.6l-15.7,10.2c-1,0.7-1.7,1.8-1.7,3v13.9	c0,1.8-1.3,3.3-3.1,3.6l-9.8,1.5c-1,0.2-1.9,0.8-2.5,1.6l-10.5,16.4c-0.4,0.6-0.9,1.1-1.6,1.4l-16.3,7.1c-0.4,0.2-0.8,0.3-1.2,0.3	l-29.7,2.1c-1.2,0.1-2.2,0.7-2.8,1.7l-15.1,24.1c-0.3,0.5-0.7,0.9-1.2,1.2l-7.9,4.8c-1.2,0.7-2.6,0.7-3.8,0l-18.1-11	c-0.8-0.5-1.3-1.2-1.6-2l-7.4-23.2c-0.3-1-1-1.8-1.9-2.2l-17.1-8.1c-1-0.5-1.7-1.4-2-2.5l-2.4-10.6c-0.1-0.6-0.1-1.2,0-1.8l7.9-28.5	c0.2-0.6,0.2-1.2,0-1.8l-3.3-14.6c-0.2-0.9,0-1.9,0.5-2.8l6.2-9.7c0.4-0.6,0.6-1.3,0.6-2v-32.5c0-1,0.4-1.9,1.1-2.6l11.5-11.6	c1.4-1.4,1.4-3.7,0-5.1l-3.6-3.6c-0.7-0.7-1.6-1.1-2.6-1.1h-29c-0.3,0-0.6,0-0.9-0.1l-12-3.1c-2.4-0.6-3.5-3.4-2.2-5.4	c32.8-52.8,91.3-88,158-88c6.8,0,13.5,0.4,20.2,1.1c1.2,0.1,2.2,0.8,2.8,1.8l14.8,25.7c0.4,0.7,1.1,1.3,1.9,1.6L364,134	C365.6,134.6,366.5,136.2,366.3,138L366.3,138z" class="st4"/><ellipse cx="191.7" cy="156.5" class="st5" rx="34.9" ry="13.7"/><path d="M346.4,264.6l-9.9,5.7c-1.8,1-2.4,3.4-1.2,5.1l8.1,12.6c0.5,0.8,1.3,1.3,2.1,1.5l15.3,4	c1.4,0.4,2.9-0.1,3.8-1.3l18.5-24.2c0.9-1.2,1-2.8,0.3-4l-2.1-3.6c-1.1-1.9-3.6-2.4-5.3-1.1l-0.9,0.7c-2.8,2-6.6-0.5-5.7-3.8	c0.5-1.8-0.5-3.6-2.2-4.3l-6.4-2.6c-1.6-0.6-3.4-0.1-4.4,1.3l-8.9,13C347.3,263.9,346.9,264.3,346.4,264.6L346.4,264.6z" class="st4"/><path d="M395.5,236.9l10.1-3.2c1.1-0.3,2.3-0.2,3.2,0.5l9,6.3c1.3,0.9,1.8,2.5,1.4,4l-2,6.9c-0.8,2.8-4.4,3.5-6.3,1.3	l-4.6-5.5c-0.6-0.8-1.6-1.2-2.6-1.3l-6.1-0.4c-1.1-0.1-2-0.6-2.7-1.4l-1.2-1.6C392.2,240.5,393.1,237.6,395.5,236.9L395.5,236.9z" class="st4"/><path d="M231,80.3c0,15.4-19.8,49.7-31.3,68.3c-3.7,5.9-12.3,5.9-15.9,0c-11.5-18.6-31.3-52.9-31.3-68.3	c0-21.7,17.6-39.3,39.3-39.3S231,58.6,231,80.3z" class="st6"/><circle cx="191" cy="79.2" r="14.3" class="st7"/><path d="M327.1,300.2c0,15.4-19.8,49.7-31.3,68.3c-3.7,5.9-12.3,5.9-15.9,0c-11.5-18.6-31.3-52.9-31.3-68.3	c0-21.7,17.6-39.3,39.3-39.3S327.1,278.5,327.1,300.2L327.1,300.2z" class="st6"/><circle cx="287.1" cy="299.1" r="14.3" class="st7"/><path d="M450,265.1c0-2.8-2.2-5-5-5c0,0-0.1,0-0.1,0c-0.4,0-0.8,0-1.2,0.1c-22.6,5.1-45.8,9.3-69.7,12.4	c0.1-2.5,0.1-5,0.1-7.5c0-50.5-11.7-98.1-32.9-134c-2.4-4.1-4.9-7.9-7.5-11.6c7.8-2.2,15-4.8,21.4-7.7c7.3,4.6,14.4,9.7,21,15.4	c32.3,27.4,54,65.4,61.2,106.8c0.5,2.7,3.1,4.5,5.8,4.1c2.7-0.5,4.5-3.1,4.1-5.8c-7.6-43.8-30.5-83.8-64.5-112.7	c-34.4-29.3-78.3-45.4-123.6-45.4c-7.9,0-15.7,0.5-23.4,1.4c-2.3-22.2-21.2-39.6-44-39.6c-24.4,0-44.3,19.9-44.3,44.3	c0,6.3,2.8,15.2,7.2,25.1c-52,34.1-86.4,93-86.4,159.7c0,6.9,0.4,13.9,1.1,20.9c0.3,2.6,2.4,4.5,5,4.5c0.2,0,0.4,0,0.5,0	c2.7-0.3,4.7-2.8,4.4-5.5c-0.5-4.5-0.8-9.1-1-13.6c21.5,4.7,43.6,8.5,66.2,11.5c0.2,4.5,0.6,9,1,13.5c-4.8-0.8-9.7-1.3-14.7-1.3	c-46.3,0-83.9,37.7-83.9,83.9s37.7,83.9,83.9,83.9c21.3,0,40.7-8,55.6-21.1c22.8,9.4,47.3,14.3,72.6,14.3c35.9,0,69.5-10,98.2-27.3	c0.5-0.2,1-0.5,1.5-0.9C413.5,394.2,450,333.8,450,265.1L450,265.1z M439.9,271.3c-2.1,61.9-35.5,116-84.8,147	c-6.4-2.9-13.6-5.5-21.4-7.7c2.6-3.7,5.1-7.5,7.5-11.6c18.7-31.7,30-72.5,32.4-116.4C396.3,279.8,418.4,276,439.9,271.3L439.9,271.3	z M206.2,416c14.8-2.7,31.1-4.3,47.9-4.6v34.4c-17.7-1.4-34.7-10.6-49.7-26.4C205,418.2,205.6,417.1,206.2,416z M154.1,265.1	c0-42.7,8.6-83.1,24.4-115.6c0.4,0.6,0.7,1.1,1.1,1.7c2.6,4.3,7.2,6.8,12.2,6.8s9.6-2.5,12.2-6.8c4.8-7.7,9.9-16.3,14.6-24.9	c11.3,1.5,23.3,2.3,35.6,2.5v142.7c-2.2,2.6-4.1,5.4-5.6,8.4c-32.2-0.4-63.7-2.4-94.3-6C154.1,271,154.1,268,154.1,265.1	L154.1,265.1z M264.1,84.4c18.7,1.5,36.6,11.6,52.1,29c-15.8,3.2-33.7,5.1-52.1,5.4V84.4z M234.7,89.2c6.3-2.6,12.8-4.2,19.4-4.7	v34.4c-10.5-0.2-20.8-0.9-30.6-2C228.6,106.7,232.7,97,234.7,89.2L234.7,89.2z M287.8,265.9c18.9,0,34.3,15.4,34.3,34.3	c0,10.3-11.1,34.3-30.6,65.7c-1.2,1.9-3,2.1-3.7,2.1c-0.7,0-2.5-0.2-3.7-2.1c-19.4-31.4-30.6-55.4-30.6-65.7	C253.5,281.3,268.9,265.9,287.8,265.9z M264.1,411.4c18.4,0.3,36.2,2.2,52.1,5.4c-15.5,17.5-33.4,27.5-52.1,29V411.4z M264.1,401.4	v-49.6c3.8,6.7,7.7,13.3,11.5,19.3c2.6,4.3,7.2,6.8,12.2,6.8s9.6-2.5,12.2-6.8c14.6-23.7,32.1-55.2,32.1-70.9c0-4.5-0.7-8.9-1.9-13	c11.3-0.9,22.4-1.9,33.5-3.2c-2.5,41.6-13.3,80.1-31,110c-3,5-6.1,9.7-9.3,14C305.6,404,285.4,401.7,264.1,401.4L264.1,401.4z M332.6,136.2c20.3,34.4,31.5,80.1,31.5,128.9c0,2.9,0,5.9-0.1,8.8c-12.6,1.5-25.4,2.7-38.3,3.7c-7.7-12.9-21.9-21.6-38-21.6	c-8.7,0-16.8,2.5-23.7,6.9v-134c21.3-0.3,41.5-2.6,59.2-6.6C326.6,126.5,329.7,131.2,332.6,136.2L332.6,136.2z M344.3,105.5	c-5.2,2-11,3.8-17.1,5.4c-6.7-8.2-13.9-15.1-21.5-20.6C319.1,93.9,332.1,99,344.3,105.5z M191.7,46c18.9,0,34.3,15.4,34.3,34.3	c0,10.3-11.1,34.3-30.6,65.7c-1.2,1.9-3,2.1-3.7,2.1c-0.7,0-2.6-0.2-3.7-2.1c-19.4-31.4-30.6-55.4-30.6-65.7	C157.5,61.4,172.8,46,191.7,46z M78.3,261.1c1.3-61,33.1-114.7,80.6-146.5c4,8.2,8.7,16.7,13.5,24.8c-18.3,34.8-28.3,79-28.3,125.7	c0,2.5,0,5,0.1,7.5C121.6,269.7,99.6,265.8,78.3,261.1L78.3,261.1z M154.6,284c29.3,3.4,59.3,5.4,90.1,5.8	c-0.8,3.3-1.2,6.8-1.2,10.4c0,7.9,4.4,19.8,10.6,32.6v68.6c-15.2,0.2-29.9,1.5-43.5,3.6c2.7-8.2,4.2-17,4.2-26.1	c0-37.6-24.8-69.5-58.9-80.1C155.4,293.9,155,289,154.6,284L154.6,284z M57,378.9c0-40.8,33.2-73.9,73.9-73.9s73.9,33.2,73.9,73.9	s-33.2,73.9-73.9,73.9S57,419.6,57,378.9L57,378.9z M194.1,434c1.7-1.9,3.3-3.9,4.8-6c4.4,4.5,9,8.5,13.8,12	C206.4,438.4,200.2,436.3,194.1,434L194.1,434z M327.2,419.3c6.1,1.6,11.9,3.4,17.1,5.4c-12.1,6.5-25,11.6-38.6,15.2	C313.3,434.4,320.5,427.5,327.2,419.3L327.2,419.3z" class="st8"/><path d="M33.5,295.4c-1.3,0-2.6-0.5-3.5-1.5c-2-2-2-5.1,0-7.1l10-10c2-2,5.1-2,7.1,0c2,2,2,5.1,0,7.1l-10,10	C36.1,294.9,34.8,295.4,33.5,295.4z" class="st4"/><path d="M468.5,276.5c-1.3,0-2.6-0.5-3.5-1.5c-2-2-2-5.1,0-7.1l10-10c2-2,5.1-2,7.1,0c2,2,2,5.1,0,7.1l-10,10	C471.1,276,469.8,276.5,468.5,276.5z" class="st9"/><path d="M107.7,82.8c-1.3,0-2.6-0.5-3.5-1.5c-2-2-2-5.1,0-7.1l10-10c2-2,5.1-2,7.1,0c2,2,2,5.1,0,7.1l-10,10	C110.3,82.3,109,82.8,107.7,82.8z" class="st9"/><path d="M320.7,48.2c-1.3,0-2.6-0.5-3.5-1.5l-6.5-6.5l-6.5,6.5c-2,2-5.1,2-7.1,0c-2-2-2-5.1,0-7.1l10-10	c2-2,5.1-2,7.1,0l10,10c2,2,2,5.1,0,7.1C323.2,47.7,321.9,48.2,320.7,48.2z" class="st2"/><path d="M403.7,454.7c-1.3,0-2.6-0.5-3.5-1.5l-6.5-6.5l-6.5,6.5c-2,2-5.1,2-7.1,0c-2-2-2-5.1,0-7.1l10-10	c2-2,5.1-2,7.1,0l10,10c2,2,2,5.1,0,7.1C406.2,454.2,404.9,454.7,403.7,454.7z" class="st2"/><circle cx="130.9" cy="378.9" r="37.4" class="st9"/><path d="M147.5,373.1c0-9.2-7.5-16.6-16.6-16.6s-16.6,7.5-16.6,16.6c0,4.5,1.8,8.6,4.8,11.6c-2.9,3-4.8,7.1-4.8,11.6 c0,2.8,2.2,5,5,5s5-2.2,5-5c0-3.6,3-6.6,6.6-6.6s6.6,3,6.6,6.6c0,2.8,2.2,5,5,5s5-2.2,5-5c0-4.5-1.8-8.6-4.8-11.6 C145.7,381.7,147.5,377.6,147.5,373.1z M130.9,366.5c3.6,0,6.6,3,6.6,6.6c0,3.6-3,6.6-6.6,6.6s-6.6-3-6.6-6.6 C124.3,369.4,127.3,366.5,130.9,366.5z" class="st7"/></svg>