<svg xmlns="http://www.w3.org/2000/svg" width="512" height="512" viewBox="0 0 512 512"><linearGradient id="a" x1="256" x2="256" y1="-3.859" y2="630.723" gradientUnits="userSpaceOnUse"><stop offset=".002" stop-color="#ffc599"/><stop offset=".992" stop-color="#ffe8dc" stop-opacity="0"/></linearGradient><path fill="url(#a)" d="m512 192.053c0-77.209-114.615-139.799-256-139.799s-256 62.59-256 139.799c0 12.48 2.999 24.577 8.62 36.089 10.007 20.491 12.502 43.828 7.537 66.086-2.036 9.127-3.179 18.59-3.333 28.294-1.235 77.812 61.961 142.061 139.782 142.06 58.443 0 108.503-35.865 129.385-86.785 11.468-27.964 35.565-48.919 65.155-55.077 96.38-20.057 164.854-70.992 164.854-130.667z"/><path fill="#00c" d="m421.952 461.418h-331.904c-10.52 0-19.048-8.528-19.048-19.048v-349.904c0-10.52 8.528-19.048 19.048-19.048h331.905c10.52 0 19.048 8.528 19.048 19.048v349.904c-.001 10.52-8.529 19.048-19.049 19.048z" opacity=".1"/><path fill="#fff" d="m421.952 440.418h-331.904c-10.52 0-19.048-8.528-19.048-19.048v-349.904c0-10.52 8.528-19.048 19.048-19.048h331.905c10.52 0 19.048 8.528 19.048 19.048v349.904c-.001 10.52-8.529 19.048-19.049 19.048z"/><path fill="#b3b3ff" d="m441 108.608v-37.142c0-10.52-8.528-19.048-19.048-19.048h-331.904c-10.52 0-19.048 8.528-19.048 19.048v37.143h370z"/><path fill="#00c" d="m421.952 47.418h-331.904c-13.26 0-24.048 10.788-24.048 24.048v315.904c0 2.761 2.238 5 5 5s5-2.239 5-5v-315.904c0-7.746 6.302-14.048 14.048-14.048h331.904c7.746 0 14.048 6.302 14.048 14.048v32.143h-331c-2.762 0-5 2.239-5 5s2.238 5 5 5h331v307.761c0 7.746-6.302 14.048-14.048 14.048h-331.904c-7.746 0-14.048-6.302-14.048-14.048 0-2.761-2.238-5-5-5s-5 2.239-5 5c0 13.26 10.788 24.048 24.048 24.048h331.904c13.26 0 24.048-10.788 24.048-24.048v-349.904c0-13.26-10.788-24.048-24.048-24.048z"/><path fill="#ff4d4d" d="m399.5 85.513h-16.52c-2.762 0-5-2.239-5-5s2.238-5 5-5h16.52c2.762 0 5 2.239 5 5s-2.238 5-5 5z"/><path fill="#ff9d33" d="m361 85.513h-16.52c-2.762 0-5-2.239-5-5s2.238-5 5-5h16.52c2.762 0 5 2.239 5 5s-2.238 5-5 5z"/><path fill="#ebebff" d="m305.5 85.513h-136.52c-2.762 0-5-2.239-5-5s2.238-5 5-5h136.52c2.762 0 5 2.239 5 5s-2.238 5-5 5z"/><g fill="#d9d9ff"><path d="m256 425.751c-2.762 0-5-2.239-5-5v-288.333c0-2.761 2.238-5 5-5s5 2.239 5 5v288.333c0 2.761-2.238 5-5 5z"/><path d="m116.801 396.725h-12.5c-2.762 0-5-2.239-5-5s2.238-5 5-5h12.5c2.762 0 5 2.239 5 5s-2.239 5-5 5z"/><path d="m209.801 396.725h-72.5c-2.762 0-5-2.239-5-5s2.238-5 5-5h72.5c2.762 0 5 2.239 5 5s-2.239 5-5 5z"/><path d="m146.801 379.498h-42.5c-2.762 0-5-2.239-5-5s2.238-5 5-5h42.5c2.762 0 5 2.239 5 5s-2.239 5-5 5z"/><path d="m303.236 396.725h-12.5c-2.762 0-5-2.239-5-5s2.238-5 5-5h12.5c2.762 0 5 2.239 5 5s-2.239 5-5 5z"/><path d="m396.236 396.725h-72.5c-2.762 0-5-2.239-5-5s2.238-5 5-5h72.5c2.762 0 5 2.239 5 5s-2.239 5-5 5z"/><path d="m333.236 379.498h-42.5c-2.762 0-5-2.239-5-5s2.238-5 5-5h42.5c2.762 0 5 2.239 5 5s-2.239 5-5 5z"/></g><path fill="#6c6cff" d="m42.5 168.978c-1.279 0-2.56-.488-3.535-1.464l-6.465-6.464-6.465 6.464c-1.951 1.952-5.119 1.952-7.07 0-1.953-1.953-1.953-5.119 0-7.071l10-10c1.951-1.952 5.119-1.952 7.07 0l10 10c1.953 1.953 1.953 5.119 0 7.071-.975.975-2.256 1.464-3.535 1.464z"/><path fill="#ff6c6c" d="m483.5 229.368c-1.279 0-2.56-.488-3.535-1.464l-6.465-6.464-6.465 6.464c-1.951 1.952-5.119 1.952-7.07 0-1.953-1.953-1.953-5.119 0-7.071l10-10c1.951-1.952 5.119-1.952 7.07 0l10 10c1.953 1.953 1.953 5.119 0 7.071-.975.975-2.256 1.464-3.535 1.464z"/><path fill="#ff6c6c" d="m37.5 221.84c-1.279 0-2.56-.488-3.535-1.464-1.953-1.953-1.953-5.119 0-7.071l10-10c1.951-1.952 5.119-1.952 7.07 0 1.953 1.953 1.953 5.119 0 7.071l-10 10c-.975.976-2.256 1.464-3.535 1.464z"/><path fill="#ff8b00" d="m116.801 354.725h-12.5c-2.762 0-5-2.239-5-5s2.238-5 5-5h12.5c2.762 0 5 2.239 5 5s-2.239 5-5 5z"/><path fill="#8383ff" d="m303.236 354.725h-12.5c-2.762 0-5-2.239-5-5s2.238-5 5-5h12.5c2.762 0 5 2.239 5 5s-2.239 5-5 5z"/><path fill="#6c6cff" d="m117.546 315.251c0 7.64 6.193 13.833 13.833 13.833h49.667c7.64 0 13.833-6.193 13.833-13.833 0-7.64-6.193-13.833-13.833-13.833h-49.666c-7.64 0-13.834 6.193-13.834 13.833z"/><path fill="#ff8b00" d="m214.339 209.178v62.48c0 5.52-4.47 10-10 10h-96.26c-5.52 0-10-4.48-10-10v-62.48z"/><path fill="#ff7300" d="m214.339 209.178v18.38c0 11.05-8.95 20-20 20h-25.96c0 6.72-5.45 12.17-12.17 12.17s-12.16-5.45-12.16-12.17h-25.97c-11.04 0-20-8.95-20-20v-18.38z"/><path fill="#ff8b00" d="m193.684 211.84h-74.941c-2.762 0-5-2.239-5-5 0-18.699 15.213-33.912 33.913-33.912h17.115c18.7 0 33.913 15.213 33.913 33.912 0 2.762-2.239 5-5 5zm-69.416-10h63.891c-2.306-10.793-11.916-18.912-23.388-18.912h-17.115c-11.472 0-21.083 8.119-23.388 18.912z"/><path fill="#ffab66" d="m214.34 209.478v10.72c0 .38-.01.75-.04 1.12-.57 10.53-9.29 18.88-19.96 18.88h-76.26c-11.04 0-20-8.95-20-20v-10.72c0-5.52 4.48-10 10-10h96.26c5.52 0 10 4.48 10 10z"/><path fill="#ff9d33" d="m214.34 209.478v10.72c0 .38-.01.75-.04 1.12-2.44.98-5.09 1.51-7.87 1.51-11.79 0-21.35-9.56-21.35-21.35 0-.68.03-1.34.1-2h19.16c5.52 0 10 4.48 10 10z"/><circle cx="156.213" cy="240.199" r="12.167" fill="#ffe8dc"/><circle cx="206.432" cy="196.78" r="21.35" fill="#ff4d4d"/><path fill="#fff" d="m201.734 206.478c-1.279 0-2.56-.488-3.535-1.464-1.953-1.953-1.953-5.119 0-7.071l10-10c1.951-1.952 5.119-1.952 7.07 0 1.953 1.953 1.953 5.119 0 7.071l-10 10c-.975.975-2.255 1.464-3.535 1.464z"/><path fill="#6c6cff" d="m303.685 315.251c0 7.64 6.193 13.833 13.833 13.833h49.667c7.64 0 13.833-6.193 13.833-13.833 0-7.64-6.193-13.833-13.833-13.833h-49.667c-7.64 0-13.833 6.193-13.833 13.833z"/><path fill="#4d4dff" d="m400.48 209.178v62.48c0 5.52-4.47 10-10 10h-96.26c-5.52 0-10-4.48-10-10v-62.48z"/><path fill="#2c27ff" d="m400.48 209.178v18.38c0 11.05-8.96 20-20 20h-3.89v7.17c0 2.76-2.24 5-5 5h-6c-2.76 0-5-2.24-5-5v-7.17h-36.49v7.17c0 2.76-2.24 5-5 5h-6c-2.76 0-5-2.24-5-5v-7.17h-3.88c-11.05 0-20-8.95-20-20v-18.38z"/><path fill="#9494ff" d="m400.48 209.478v10.72c0 .38-.01.75-.04 1.12-.57 10.53-9.29 18.88-19.96 18.88h-76.26c-11.04 0-20-8.95-20-20v-10.72c0-5.52 4.48-10 10-10h96.26c5.52 0 10 4.48 10 10z"/><path fill="#8383ff" d="m400.48 209.478v10.72c0 .38-.01.75-.04 1.12-2.44.98-5.09 1.51-7.87 1.51-11.79 0-21.35-9.56-21.35-21.35 0-.68.03-1.34.1-2h19.16c5.52 0 10 4.48 10 10z"/><circle cx="392.571" cy="196.78" r="21.35" fill="#ff4d4d"/><path fill="#fff" d="m387.873 206.478c-1.279 0-2.56-.488-3.535-1.464-1.953-1.953-1.953-5.119 0-7.071l10-10c1.951-1.952 5.119-1.952 7.07 0 1.953 1.953 1.953 5.119 0 7.071l-10 10c-.975.975-2.256 1.464-3.535 1.464z"/><path fill="#ffab66" d="m319.105 252.367h-6c-2.761 0-5-2.239-5-5v-14.335c0-2.761 2.239-5 5-5h6c2.761 0 5 2.239 5 5v14.335c0 2.761-2.238 5-5 5z"/><path fill="#ffab66" d="m371.591 252.367h-6c-2.761 0-5-2.239-5-5v-14.335c0-2.761 2.239-5 5-5h6c2.761 0 5 2.239 5 5v14.335c0 2.761-2.239 5-5 5z"/><path fill="#ff9d33" d="m478.5 327.334c-1.279 0-2.56-.488-3.535-1.464-1.953-1.953-1.953-5.119 0-7.071l10-10c1.951-1.952 5.119-1.952 7.07 0 1.953 1.953 1.953 5.119 0 7.071l-10 10c-.975.975-2.256 1.464-3.535 1.464z"/><path fill="#ff9d33" d="m50.332 463.085c-1.279 0-2.56-.488-3.535-1.464l-6.465-6.464-6.465 6.464c-1.951 1.952-5.119 1.952-7.07 0-1.953-1.953-1.953-5.119 0-7.071l10-10c1.951-1.952 5.119-1.952 7.07 0l10 10c1.953 1.953 1.953 5.119 0 7.071-.975.975-2.256 1.464-3.535 1.464z"/></svg>