<svg xmlns="http://www.w3.org/2000/svg" id="Capa_1" x="0" y="0" version="1.1" viewBox="0 0 512 512" xml:space="preserve"><style>.st0{fill:url(#SVGID_1_)}.st1{opacity:.1;fill:#2626bc;enable-background:new}.st2{fill:#ff6c6c}.st3{fill:#ff4d4d}.st4{fill:#ffc599}.st5{fill:#ff9d33}.st6{fill:#fff}.st7{fill:#f7f3ff}.st8{fill:#fee}.st9{fill:#8383ff}.st10{fill:#2626bc}</style><linearGradient id="SVGID_1_" x1="1068.089" x2="528.035" y1="5650.263" y2="5962.294" gradientTransform="matrix(1 0 0 1 -561.6 -5538.9902)" gradientUnits="userSpaceOnUse"><stop offset="0" stop-color="#fff3ee" stop-opacity="0"/><stop offset=".294" stop-color="#ffeade" stop-opacity=".373"/><stop offset=".787" stop-color="#ffd6bb"/></linearGradient><path d="M361.2,275.7c-56.8,0-102.8-46-102.8-102.8v-65.2C258.5,48.2,210.2,0,150.8,0S43.1,48.2,43.1,107.7v86.2 C43.1,369.6,185.5,512,361.2,512c59.5,0,107.7-48.2,107.7-107.7v-20.9C468.9,323.9,420.7,275.7,361.2,275.7L361.2,275.7z" class="st0"/><path d="M437,179.3H75c-8.3,0-15,6.7-15,15v203.9c0,8.3,6.7,15,15,15h126.2v23.5c0,4,4.5,6.4,7.8,4.1l13.3-9.1 l13.3,9.1c3.3,2.3,7.8-0.1,7.8-4.1v-23.5H437c8.3,0,15-6.7,15-15V194.3C452,186,445.3,179.3,437,179.3L437,179.3z" class="st1"/><path d="M452,167.3v203.9c0,8.3-6.7,15-15,15H75c-8.3,0-15-6.7-15-15V167.3c0-8.3,6.7-15,15-15H437 C445.3,152.3,452,159,452,167.3L452,167.3z" class="st2"/><path d="M419,152.3v210.2c0,5.5-4.5,10-10,10H266c-2.8,0-5.3-1.1-7.1-2.9s-2.9-4.3-2.9-7.1c0,5.5-4.5,10-10,10H103 c-5.5,0-10-4.5-10-10V152.3L419,152.3z" class="st3"/><path d="M243.4,348.2v61.6c0,4-4.5,6.4-7.8,4.1l-13.3-9.1l-13.3,9.1c-3.3,2.3-7.8-0.1-7.8-4.1v-61.6H243.4z" class="st4"/><path d="M201.1,348.2h42.3v24.4h-42.3V348.2z" class="st5"/><path d="M256,155.6V345c0,5.5-4.5,10-10,10H103c-5.5,0-10-4.5-10-10V140.6c0-5.5,4.5-10,10-10h128 C244.8,130.6,256,141.7,256,155.6z" class="st6"/><path d="M256,155.6v10.7c-9.9,0-17.9-8-17.9-17.9c0-5.6,2.5-10.5,6.5-13.8C251.5,139.1,256,146.8,256,155.6z" class="st7"/><path d="M193.7,194.1c-3.4,20.6-12.9,33.5-28.2,38.6c-10.4,3.5-20.3,2.5-29.6-3c-8.2-4.9-15.3-15.7-21.3-32.3 l78.8-26.5c-3.8-10.9-8.3-19.5-13.5-25.8c-5.3-6.5-11.2-11.4-17.8-14.6h-43.2c-11.8,5.3-20.4,14.2-25.8,26.8 c0,0.1,0,0.1-0.1,0.1v48.9c5.6,16.2,15.1,27.9,28.6,35.1c13.6,7.3,27.8,8.4,42.5,3.5c21.6-7.3,34.4-23.9,38.4-50L193.7,194.1z M109.7,153.4c3.2-9.2,8.9-15.2,17.1-17.9c7.3-2.4,14.6-1.6,22,2.7c7.4,4.2,12.5,10.6,15.4,19.3c1.6,4.6,1.9,8.2,0.9,10.6 c-0.9,2.4-2.8,4.1-5.6,5.1l-47.7,16C107.1,174.5,106.4,162.6,109.7,153.4z" class="st8"/><path d="M221.6,269.1h-101c-2.8,0-5-2.2-5-5v-19.5c0-2.8,2.2-5,5-5h101c2.8,0,5,2.2,5,5v19.5 C226.6,266.9,224.4,269.1,221.6,269.1z" class="st4"/><path d="M266,355h143c5.5,0,10-4.5,10-10V140.5c0-5.5-4.5-10-10-10H281c-13.8,0-25,11.2-25,25V345 C256,350.5,260.5,355,266,355z" class="st6"/><path d="M273.9,148.4c0,9.9-8,17.9-17.9,17.9v-10.7c0-8.8,4.5-16.5,11.3-20.9C271.3,137.9,273.9,142.9,273.9,148.4 L273.9,148.4z" class="st7"/><g><path d="M327.8,169.9h-43.5c-2.8,0-5-2.2-5-5s2.2-5,5-5h43.5c2.8,0,5,2.2,5,5S330.5,169.9,327.8,169.9z" class="st2"/><path d="M327.8,189.4h-43.5c-2.8,0-5-2.2-5-5s2.2-5,5-5h43.5c2.8,0,5,2.2,5,5S330.5,189.4,327.8,189.4z" class="st2"/><path d="M327.8,208.9h-43.5c-2.8,0-5-2.2-5-5s2.2-5,5-5h43.5c2.8,0,5,2.2,5,5S330.5,208.9,327.8,208.9z" class="st2"/><path d="M327.8,228.4h-43.5c-2.8,0-5-2.2-5-5s2.2-5,5-5h43.5c2.8,0,5,2.2,5,5S330.5,228.4,327.8,228.4z" class="st2"/><path d="M327.8,247.9h-43.5c-2.8,0-5-2.2-5-5s2.2-5,5-5h43.5c2.8,0,5,2.2,5,5S330.5,247.9,327.8,247.9z" class="st2"/><g><path d="M390.7,169.9h-43.5c-2.8,0-5-2.2-5-5s2.2-5,5-5h43.5c2.8,0,5,2.2,5,5S393.5,169.9,390.7,169.9z" class="st2"/><path d="M390.7,189.4h-43.5c-2.8,0-5-2.2-5-5s2.2-5,5-5h43.5c2.8,0,5,2.2,5,5S393.5,189.4,390.7,189.4z" class="st2"/><path d="M390.7,208.9h-43.5c-2.8,0-5-2.2-5-5s2.2-5,5-5h43.5c2.8,0,5,2.2,5,5S393.5,208.9,390.7,208.9z" class="st2"/><path d="M390.7,228.4h-43.5c-2.8,0-5-2.2-5-5s2.2-5,5-5h43.5c2.8,0,5,2.2,5,5S393.5,228.4,390.7,228.4z" class="st2"/><path d="M390.7,247.9h-43.5c-2.8,0-5-2.2-5-5s2.2-5,5-5h43.5c2.8,0,5,2.2,5,5S393.5,247.9,390.7,247.9z" class="st2"/></g><g><path d="M327.8,267.4h-43.5c-2.8,0-5-2.2-5-5s2.2-5,5-5h43.5c2.8,0,5,2.2,5,5S330.5,267.4,327.8,267.4z" class="st9"/><path d="M327.8,286.9h-43.5c-2.8,0-5-2.2-5-5s2.2-5,5-5h43.5c2.8,0,5,2.2,5,5S330.5,286.9,327.8,286.9z" class="st9"/><path d="M327.8,306.4h-43.5c-2.8,0-5-2.2-5-5s2.2-5,5-5h43.5c2.8,0,5,2.2,5,5S330.5,306.4,327.8,306.4z" class="st9"/><path d="M327.8,325.9h-43.5c-2.8,0-5-2.2-5-5s2.2-5,5-5h43.5c2.8,0,5,2.2,5,5S330.5,325.9,327.8,325.9z" class="st9"/><g><path d="M390.7,267.4h-43.5c-2.8,0-5-2.2-5-5s2.2-5,5-5h43.5c2.8,0,5,2.2,5,5S393.5,267.4,390.7,267.4z" class="st9"/><path d="M390.7,286.9h-43.5c-2.8,0-5-2.2-5-5s2.2-5,5-5h43.5c2.8,0,5,2.2,5,5S393.5,286.9,390.7,286.9z" class="st9"/><path d="M390.7,306.4h-43.5c-2.8,0-5-2.2-5-5s2.2-5,5-5h43.5c2.8,0,5,2.2,5,5S393.5,306.4,390.7,306.4z" class="st9"/><path d="M390.7,325.9h-43.5c-2.8,0-5-2.2-5-5s2.2-5,5-5h43.5c2.8,0,5,2.2,5,5S393.5,325.9,390.7,325.9z" class="st9"/></g></g></g><g><path d="M170.2,308.4h-49.5c-2.8,0-5-2.2-5-5s2.2-5,5-5h49.5c2.8,0,5,2.2,5,5S172.9,308.4,170.2,308.4z" class="st9"/><path d="M197.2,325.9h-76.5c-2.8,0-5-2.2-5-5s2.2-5,5-5h76.5c2.8,0,5,2.2,5,5S199.9,325.9,197.2,325.9z" class="st9"/><g><circle cx="122.2" cy="285.3" r="5" class="st9"/><circle cx="138.4" cy="285.3" r="5" class="st9"/></g></g><path d="M248.2,469.7c-1.3,0-2.6-0.5-3.5-1.5l-4.5-4.5l-4.5,4.5c-2,2-5.1,2-7.1,0c-2-2-2-5.1,0-7.1l8-8 c2-2,5.1-2,7.1,0l8,8c2,2,2,5.1,0,7.1C250.8,469.2,249.5,469.7,248.2,469.7z" class="st9"/><path d="M79.7,106.3h-3v-3c0-2.8-2.2-5-5-5s-5,2.2-5,5v3h-3c-2.8,0-5,2.2-5,5s2.2,5,5,5h3v3c0,2.8,2.2,5,5,5 s5-2.2,5-5v-3h3c2.8,0,5-2.2,5-5S82.4,106.3,79.7,106.3z" class="st5"/><path d="M283,434.1h-3v-3c0-2.8-2.2-5-5-5s-5,2.2-5,5v3h-3c-2.8,0-5,2.2-5,5s2.2,5,5,5h3v3c0,2.8,2.2,5,5,5s5-2.2,5-5 v-3h3c2.8,0,5-2.2,5-5S285.8,434.1,283,434.1z" class="st2"/><circle cx="256" cy="134.1" r="17.9" class="st2"/><path d="M437,147.3h-13v-6.8c0-8.3-6.7-15-15-15H281c-1.3,0-2.5,0.1-3.7,0.2c-3.3-8.5-11.6-14.5-21.3-14.5 c-9.7,0-17.9,6-21.3,14.5c-1.2-0.2-2.5-0.2-3.7-0.2H103c-8.3,0-15,6.7-15,15v6.8H75c-11,0-20,9-20,20v203.9c0,11,9,20,20,20h121.2 v18.5c0,3.7,2,7.1,5.3,8.8c3.3,1.7,7.2,1.5,10.3-0.6l10.5-7.2l10.5,7.2c1.7,1.2,3.7,1.7,5.6,1.7c1.6,0,3.2-0.4,4.7-1.2 c3.3-1.7,5.3-5.1,5.3-8.8v-18.5H437c11,0,20-9,20-20V167.3C457,156.3,448.1,147.3,437,147.3L437,147.3z M409,135.6c2.8,0,5,2.2,5,5 V345c0,2.8-2.2,5-5,5H266c-2.8,0-5-2.2-5-5c0,0,0,0,0,0V156.4c9.7-2.2,17.1-10.6,17.8-20.8c0.7-0.1,1.5-0.1,2.2-0.1L409,135.6z M256,121.3c7.1,0,12.9,5.8,12.9,12.9c0,7.1-5.8,12.9-12.9,12.9s-12.9-5.8-12.9-12.9S248.9,121.3,256,121.3z M75,381.3 c-5.5,0-10-4.5-10-10V167.3c0-5.5,4.5-10,10-10h13v16.9c0,2.8,2.2,5,5,5s5-2.2,5-5v-33.7c0-2.8,2.2-5,5-5h128c0.7,0,1.5,0,2.2,0.1 c0.7,10.2,8.1,18.6,17.8,20.8V345c0,2.8-2.2,5-5,5H103c-2.8,0-5-2.2-5-5V204.8c0-2.8-2.2-5-5-5s-5,2.2-5,5V345c0,8.3,6.7,15,15,15 h93.1v21.3L75,381.3L75,381.3z M225.1,400.7c-1.7-1.2-3.9-1.2-5.6,0l-13.3,9.1V360h32.3v49.8L225.1,400.7z M447,371.3 c0,5.5-4.5,10-10,10H248.4v-21.5c2.9-0.5,5.5-1.8,7.6-3.6c2.7,2.4,6.2,3.9,10,3.9h143c8.3,0,15-6.7,15-15V157.3h13 c5.5,0,10,4.5,10,10L447,371.3L447,371.3z" class="st10"/><path d="M224.7,99.2c-2,2-2,5.1,0,7.1c2,2,5.1,2,7.1,0c13.4-13.4,35.1-13.3,48.4,0c1,1,2.3,1.5,3.5,1.5 s2.6-0.5,3.5-1.5c2-2,2-5.1,0-7.1C270,82,242,82,224.7,99.2L224.7,99.2z" class="st10"/><path d="M364.9,62.4c-1.3,0-2.6-0.5-3.5-1.5l-4.5-4.5l-4.5,4.5c-2,2-5.1,2-7.1,0c-2-2-2-5.1,0-7.1l8-8c2-2,5.1-2,7.1,0 l8,8c2,2,2,5.1,0,7.1C367.4,61.9,366.1,62.4,364.9,62.4z" class="st2"/><path d="M400.3,93.7c-1.3,0-2.6-0.5-3.5-1.5l-4.5-4.5l-4.5,4.5c-2,2-5.1,2-7.1,0c-2-2-2-5.1,0-7.1l8-8c2-2,5.1-2,7.1,0 l8,8c2,2,2,5.1,0,7.1C402.9,93.2,401.6,93.7,400.3,93.7z" class="st5"/><circle cx="174.4" cy="191.1" r="37.4" class="st2"/></svg>