<svg xmlns="http://www.w3.org/2000/svg" id="Capa_1" x="0" y="0" version="1.1" viewBox="0 0 512 512" xml:space="preserve"><style>.st0{fill:url(#SVGID_1_)}.st1{fill:#4d4dff}.st2{fill:#ff9d33}.st3{fill:#ff4d4d}.st4{opacity:.1;fill:#00c;enable-background:new}.st5{fill:#ffab66}.st6{fill:#ff2c2c}.st7{fill:#ff8b00}.st8{fill:#ffc599}.st9{fill:#00c}</style><linearGradient id="SVGID_1_" x1="26.124" x2="516.11" y1="427.376" y2="140.343" gradientTransform="matrix(1 0 0 -1 0 514)" gradientUnits="userSpaceOnUse"><stop offset=".102" stop-color="#fff" stop-opacity="0"/><stop offset=".319" stop-color="#eef" stop-opacity=".302"/><stop offset=".598" stop-color="#dedeff" stop-opacity=".691"/><stop offset=".821" stop-color="#d9d9ff"/></linearGradient><path d="M460.4,38.1c-35.5-39.2-98.7-49.8-145-24.2c-37.1,20.5-182.1,90.7-222.2,109.7C65.2,137,37.2,156,26.4,185.2	c-13,35.3,3.5,75.5,28.6,103.5s58.1,47.6,86.8,72s54.4,56.5,56.5,94.1c0.8,14.7-1.7,31.1,7.1,42.9c9.2,12.5,27,14.4,42.5,14.2	c26.4-0.4,53.1-3.9,77.1-14.6s45.4-29.1,55.9-53.3c22.8-52.8-10-117.4,13.1-170c15.8-36,53.8-56.8,76.1-89.2	C500.1,141.3,495.9,77.3,460.4,38.1L460.4,38.1z" class="st0"/><path d="M398.2,286.7c-1,0-2.1-0.3-2.9-1l-3.2-2.4l-3.2,2.4c-1.8,1.3-4.1,1.3-5.9,0c-1.8-1.3-2.5-3.5-1.8-5.6l1.2-3.8	l-3.2-2.4c-1.8-1.3-2.5-3.5-1.8-5.6c0.7-2.1,2.6-3.5,4.8-3.5h4l1.2-3.8c0.7-2.1,2.6-3.5,4.8-3.5c2.2,0,4.1,1.4,4.8,3.5l1.2,3.8h4	c2.2,0,4.1,1.4,4.8,3.5c0.7,2.1-0.1,4.3-1.8,5.6l-3.2,2.4l1.2,3.8c0.7,2.1-0.1,4.3-1.8,5.6C400.3,286.4,399.2,286.7,398.2,286.7z" class="st1"/><path d="M86.9,367.9c-1,0-2.1-0.3-2.9-1l-3.2-2.4l-3.2,2.4c-1.8,1.3-4.1,1.3-5.9,0c-1.8-1.3-2.5-3.5-1.8-5.6l1.2-3.8	l-3.2-2.4c-1.8-1.3-2.5-3.5-1.8-5.6s2.6-3.5,4.8-3.5h4l1.2-3.8c0.7-2.1,2.6-3.5,4.8-3.5c2.2,0,4.1,1.4,4.8,3.5l1.2,3.8h4	c2.2,0,4.1,1.4,4.8,3.5s-0.1,4.3-1.8,5.6l-3.2,2.4l1.2,3.8c0.7,2.1-0.1,4.3-1.8,5.6C89,367.5,87.9,367.9,86.9,367.9L86.9,367.9z" class="st2"/><path d="M419.7,322c-1.3,0-2.6-0.5-3.5-1.5l-5-5l-5,5c-2,2-5.1,2-7.1,0c-2-2-2-5.1,0-7.1l8.5-8.5c2-2,5.1-2,7.1,0	l8.5,8.5c2,2,2,5.1,0,7.1C422.3,321.5,421,322,419.7,322z" class="st3"/><path d="M410.5,112.8c-1.3,0-2.6-0.5-3.5-1.5l-5-5l-5,5c-2,2-5.1,2-7.1,0c-2-2-2-5.1,0-7.1l8.5-8.5c2-2,5.1-2,7.1,0	l8.5,8.5c2,2,2,5.1,0,7.1C413.1,112.3,411.8,112.8,410.5,112.8z" class="st2"/><path d="M137.7,51.7c-1.3,0-2.6-0.5-3.5-1.5l-5-5l-5,5c-2,2-5.1,2-7.1,0c-2-2-2-5.1,0-7.1l8.5-8.5c2-2,5.1-2,7.1,0	l8.5,8.5c2,2,2,5.1,0,7.1C140.2,51.2,138.9,51.7,137.7,51.7L137.7,51.7z" class="st3"/><path d="M288.8,307.6v-13.7c28.1-12.4,49.5-40.1,56.3-74.3c3.9,1.8,8.2,2.7,12.9,2.4c12.5-0.9,22.7-11.1,23.6-23.7 c0.7-9.6-3.9-18.2-11.2-23.1v-14.2c0-63.1-51.2-114.3-114.3-114.3S141.7,97.9,141.7,161.1v14.2c-7.3,4.9-11.9,13.5-11.2,23.1 c0.9,12.6,11.1,22.7,23.6,23.7c4.6,0.3,9-0.6,12.9-2.4c6.8,34.1,28.2,61.9,56.3,74.3v13.7c-64.6,6-115.2,60.4-115.2,126.6v61.8 c0,5.5,4.5,10,10,10h276c5.5,0,10-4.5,10-10v-61.8C404,368.1,353.4,313.7,288.8,307.6L288.8,307.6z" class="st4"/><path d="M404,480.6H108v-71.8c0-70.2,56.9-127.2,127.2-127.2h41.7c70.2,0,127.2,56.9,127.2,127.2L404,480.6z" class="st3"/><path d="M108,416.1h59.3v64.5H108V416.1z" class="st5"/><path d="M344.7,416.1H404v64.5h-59.3V416.1z" class="st5"/><path d="M108,416.1h59.3v21H108V416.1z" class="st2"/><path d="M344.7,416.1H404v21h-59.3V416.1z" class="st2"/><path d="M167.3,416.1v-30.8c0-4.6-3.8-8.4-8.4-8.4s-8.4,3.8-8.4,8.4v30.8H167.3z" class="st6"/><path d="M361.4,416.1v-30.8c0-4.6-3.8-8.4-8.4-8.4s-8.4,3.8-8.4,8.4v30.8H361.4z" class="st6"/><path d="M288.8,237.1v48.3c0,18.1-14.7,32.8-32.8,32.8s-32.8-14.7-32.8-32.8v-48.3L288.8,237.1z" class="st5"/><path d="M288.8,237.1v48.3c-10.3,4.1-21.3,6.4-32.8,6.4s-22.5-2.2-32.8-6.4v-48.3L288.8,237.1z" class="st2"/><g><path d="M370.3,177.4v-41.8c0-63.1-51.2-114.3-114.3-114.3S141.7,72.4,141.7,135.6v41.8H370.3z" class="st7"/><circle cx="356" cy="171" r="25.6" class="st5"/><circle cx="156" cy="171" r="25.6" class="st5"/><ellipse cx="256" cy="171" class="st8" rx="91.3" ry="104.4"/><path d="M255.8,155.4c1.5,0,2.7,1.1,2.7,2.5v2.2c0,3.8-2.2,7.2-5.7,9c-2.1,1.1-3.4,3.1-3.3,5.4 c0.1,3,2.8,5.5,6,5.6c1.7,0.1,3.4-0.5,4.6-1.6c1.2-1.1,1.9-2.6,1.9-4.2c0-1.4,1.2-2.5,2.7-2.5s2.7,1.1,2.7,2.5 c0,3-1.3,5.8-3.6,7.8c-2.3,2.1-5.3,3.1-8.5,3c-6.1-0.2-11-4.8-11.2-10.4c-0.2-4.2,2.2-8,6.1-10c1.8-0.9,2.9-2.7,2.9-4.6v-2.2 C253.1,156.5,254.3,155.4,255.8,155.4L255.8,155.4z" class="st3"/><ellipse cx="255.8" cy="234.8" class="st3" rx="9.3" ry="2.2"/><path d="M292.9,57.4h-77.4c-34.3,0-62.1,27.8-62.1,62.1s72.7,24.8,138-21.6c0,0,15.7,22.3,63.4,28.2v-6.6 C354.9,85.2,327.1,57.4,292.9,57.4L292.9,57.4z" class="st7"/><path d="M374.7,319.9c-21.2-23.3-49.8-38.2-80.8-42.2v-6c26.8-13,47-39.2,54.9-70.9c2.4,0.6,4.8,0.9,7.3,0.9 c16.9,0,30.6-13.7,30.6-30.6s-13.7-30.6-30.6-30.6c-2.5,0-4.9,0.3-7.3,0.9c-1-3.9-2.1-7.8-3.5-11.6c2.9,0.5,5.9,1,9.1,1.4 c2.7,0.3,5.2-1.6,5.6-4.3c0.3-2.7-1.6-5.2-4.3-5.6c-44.6-5.5-59.8-26-60-26.2c-0.8-1.1-1.9-1.8-3.2-2c-1.3-0.2-2.7,0.1-3.7,0.9 c-50.6,36-105.4,28-126.6,22.8c-2.7-0.6-5.4,1-6,3.7c-0.6,2.7,1,5.4,3.7,6c2.3,0.5,4.9,1.1,7.8,1.7c-1.6,4.3-3,8.7-4.1,13.2 c-2.4-0.6-4.8-0.9-7.3-0.9c-3.2,0-6.4,0.5-9.3,1.5v-6.3c0-60.3,49.1-109.3,109.3-109.3c26.1,0,51.4,9.4,71.2,26.3 c19.6,16.8,32.6,40,36.7,65.3c0.4,2.7,3,4.6,5.7,4.1c2.7-0.4,4.6-3,4.1-5.7c-4.5-27.6-18.7-53-40.1-71.3 c-21.6-18.5-49.2-28.7-77.7-28.7c-65.8,0-119.3,53.5-119.3,119.3v11.7c-6.9,5.6-11.3,14.2-11.3,23.7c0,16.9,13.7,30.6,30.6,30.6 c2.5,0,4.9-0.3,7.3-0.9c7.9,31.7,28.1,57.9,54.9,70.9v6c-31.1,4-59.6,18.9-80.8,42.2c-22.1,24.4-34.3,55.9-34.3,88.9v71.8 c0,2.8,2.2,5,5,5s5-2.2,5-5v-71.8c0-30.5,11.3-59.6,31.7-82.1c19.3-21.3,45.3-34.9,73.5-38.9c1.2,19.8,17.7,35.5,37.7,35.5 s36.5-15.7,37.7-35.5c28.2,3.9,54.2,17.6,73.5,38.9c20.5,22.5,31.7,51.7,31.7,82.1v71.8c0,2.8,2.2,5,5,5s5-2.2,5-5v-71.8 C409,375.8,396.8,344.2,374.7,319.9L374.7,319.9z M356,150.4c11.4,0,20.6,9.2,20.6,20.6s-9.2,20.6-20.6,20.6 c-1.8,0-3.6-0.3-5.3-0.7c1.1-6.5,1.6-13.1,1.6-19.9c0-6.8-0.5-13.4-1.6-19.9C352.5,150.6,354.2,150.4,356,150.4L356,150.4z M156,191.6c-11.4,0-20.6-9.2-20.6-20.6s9.2-20.6,20.6-20.6c1.8,0,3.6,0.3,5.3,0.7c-1.1,6.5-1.6,13.2-1.6,19.9 c0,6.8,0.6,13.4,1.6,19.9C159.6,191.3,157.8,191.6,156,191.6L156,191.6z M256,313.2c-15.3,0-27.8-12.5-27.8-27.8v-9.7 c3.2,1.1,6.4,2,9.8,2.7c0.4,0.1,0.7,0.1,1.1,0.1c2.3,0,4.4-1.6,4.9-3.9c0.6-2.7-1.1-5.4-3.8-5.9c-40.8-8.8-70.4-49.8-70.4-97.7 c0-14.5,2.6-28.4,7.8-41.4c6.9,0.9,14.7,1.5,23.4,1.5c25.9,0,58.4-5.6,89.8-26.7c5.5,5.6,18.6,16.1,42.8,22.6 c5.9,13.7,8.9,28.5,8.9,43.9c0,47.9-29.7,89-70.6,97.7c-2.7,0.6-4.4,3.2-3.9,5.9c0.5,2.4,2.6,4,4.9,4c0.3,0,0.7,0,1-0.1 c3.4-0.7,6.7-1.7,9.9-2.8v9.7C283.8,300.8,271.3,313.2,256,313.2L256,313.2z" class="st9"/></g></svg>