<svg xmlns="http://www.w3.org/2000/svg" width="512" height="512" viewBox="0 0 512 512"><linearGradient id="a" x1="285.786" x2="215.289" y1="599.176" y2="-42.792" gradientUnits="userSpaceOnUse"><stop offset=".002" stop-color="#ff9494"/><stop offset=".992" stop-color="#ffe8dc" stop-opacity="0"/></linearGradient><path fill="url(#a)" d="m465.257 166.61c-14.861-17.312-24.645-38.356-29.218-60.708-3.878-18.954-12.095-35.401-24.961-48.267-58.773-58.773-192.264-20.572-298.161 85.325s-144.098 239.387-85.325 298.161c27.937 27.937 72.757 33.955 123.469 21.212 29.453-7.401 60.532-4.287 88.29 8.03 23.202 10.295 48.799 16.173 75.724 16.566 105.676 1.543 193.748-82.552 196.839-188.195 1.479-50.506-16.354-96.823-46.657-132.124z"/><g opacity=".1"><path fill="#00c" d="m280.433 113.204c-.883 0-1.778-.234-2.588-.726-6.579-3.991-14.133-6.101-21.845-6.101s-15.266 2.109-21.845 6.101c-2.362 1.433-5.437.68-6.868-1.682-1.432-2.361-.679-5.436 1.682-6.868 8.143-4.94 17.49-7.551 27.031-7.551s18.888 2.611 27.031 7.551c2.361 1.432 3.114 4.507 1.682 6.868-.941 1.55-2.59 2.408-4.28 2.408z"/><path fill="#00c" d="m266.392 129.441c-.883 0-1.778-.234-2.588-.726-4.699-2.851-10.907-2.851-15.606 0-2.361 1.434-5.436.68-6.868-1.682s-.679-5.436 1.682-6.868c3.914-2.374 8.406-3.629 12.99-3.629s9.076 1.255 12.99 3.629c2.361 1.432 3.114 4.507 1.682 6.868-.943 1.55-2.592 2.408-4.282 2.408z"/><path fill="#00c" d="m293.423 96.12c-.883 0-1.778-.234-2.588-.726-10.491-6.364-22.537-9.729-34.835-9.729s-24.344 3.364-34.835 9.729c-2.361 1.433-5.436.68-6.868-1.682-1.432-2.361-.679-5.436 1.682-6.868 12.055-7.313 25.895-11.179 40.021-11.179s27.966 3.866 40.021 11.179c2.361 1.432 3.114 4.507 1.682 6.868-.94 1.55-2.59 2.408-4.28 2.408z"/></g><g fill="#00c" opacity=".1"><path d="m310.25 157.344h-108.5c-11.046 0-20 8.954-20 20v204.594c0 11.046 8.954 20 20 20h108.5c11.046 0 20-8.954 20-20v-204.594c0-11.045-8.954-20-20-20z"/><path d="m195.667 241.464h-76.667v-106.578l36.147-13.861v-50.159l-41.147-15.779-41.147 15.779v50.159l36.147 13.861v111.578c0 2.761 2.239 5 5 5h81.667z"/><path d="m403 409.106v-111.578c0-2.761-2.239-5-5-5h-82.333v10h77.333v106.578l-36.147 13.861v50.159l41.147 15.779 41.147-15.779v-50.159z"/></g><path fill="#b3b3ff" d="m310.25 374.939h-108.5c-11.046 0-20-8.954-20-20v-204.595c0-11.046 8.954-20 20-20h108.5c11.046 0 20 8.954 20 20v204.594c0 11.046-8.954 20.001-20 20.001z"/><g fill="#8383ff"><path d="m228.667 374.939h-23.333v-55.24c0-2.761 2.239-5 5-5h13.333c2.761 0 5 2.239 5 5z"/><path d="m306.667 374.939h-23.333v-55.24c0-2.761 2.239-5 5-5h13.333c2.761 0 5 2.239 5 5z"/></g><path fill="#ff6c6c" d="m277.333 130.344v5.964c0 11.782-9.551 21.333-21.333 21.333-11.782 0-21.333-9.551-21.333-21.333v-5.964z"/><path fill="#fff" d="m285.872 230.002-25.583-42.687c-1.942-3.24-6.636-3.24-8.577 0l-25.583 42.687c-1.997 3.333.403 7.57 4.289 7.57h51.166c3.884 0 6.285-4.238 4.288-7.57z"/><path fill="#ff4d4d" d="m72.853 94.025v-50.159l41.147-15.779 41.147 15.779v50.159z"/><path fill="#ffb3b3" d="m114 94.025h-41.147v-50.159l41.147-15.779z"/><path fill="#ff6c6c" d="m114 109.803 41.147-15.778-41.147-15.779-41.147 15.779z"/><g><path fill="#fff" d="m226.128 259.991 25.583 42.687c1.942 3.24 6.636 3.24 8.577 0l25.583-42.687c1.997-3.333-.403-7.57-4.289-7.57h-51.166c-3.884-.001-6.285 4.237-4.288 7.57z"/><path fill="#ff9d33" d="m439.147 395.968v50.159l-41.147 15.778-41.147-15.778v-50.159z"/><path fill="#ffe8dc" d="m398 395.968h41.147v50.159l-41.147 15.778z"/><path fill="#ffc599" d="m398 380.189-41.147 15.779 41.147 15.779 41.147-15.779z"/><g fill="#00c"><path d="m249 369.939h-47.25c-8.271 0-15-6.729-15-15v-101.475c0-2.761-2.239-5-5-5s-5 2.239-5 5v101.474c0 13.785 11.215 25 25 25h47.25c2.761 0 5-2.239 5-5s-2.239-4.999-5-4.999z"/><path d="m280.433 86.204c1.69 0 3.339-.857 4.28-2.408 1.432-2.361.679-5.436-1.682-6.868-8.143-4.94-17.49-7.551-27.031-7.551s-18.888 2.611-27.031 7.551c-2.361 1.432-3.114 4.507-1.682 6.868s4.506 3.114 6.868 1.682c6.579-3.991 14.133-6.101 21.845-6.101s15.266 2.109 21.845 6.101c.81.491 1.705.726 2.588.726z"/><path d="m256 89.536c-4.584 0-9.076 1.255-12.99 3.629-2.361 1.432-3.114 4.507-1.682 6.868 1.432 2.362 4.507 3.115 6.868 1.682 4.699-2.851 10.907-2.851 15.606 0 .811.492 1.705.726 2.588.726 1.69 0 3.339-.857 4.28-2.408 1.432-2.361.679-5.436-1.682-6.868-3.912-2.374-8.404-3.629-12.988-3.629z"/><path d="m221.165 68.394c10.491-6.364 22.537-9.729 34.835-9.729s24.344 3.364 34.835 9.729c.811.492 1.705.726 2.588.726 1.69 0 3.339-.857 4.28-2.408 1.432-2.361.679-5.436-1.682-6.868-12.055-7.313-25.894-11.179-40.021-11.179s-27.966 3.866-40.021 11.179c-2.361 1.432-3.114 4.507-1.682 6.868s4.507 3.116 6.868 1.682z"/><path d="m444.056 395.063c-.309-1.683-1.516-3.15-3.119-3.764l-37.937-14.548v-106.223c0-2.761-2.239-5-5-5h-62.75v-115.184c0-13.785-11.215-25-25-25h-108.5c-13.785 0-25 11.215-25 25v64.12h-57.75v-101.223l37.938-14.548c1.894-.725 3.21-2.64 3.21-4.668v-50.159c0-2.071-1.276-3.927-3.21-4.668l-41.148-15.779c-1.126-.432-2.454-.432-3.58 0l-41.147 15.778c-1.934.741-3.21 2.598-3.21 4.668v50.159c0 2.026 1.318 3.944 3.21 4.668l37.937 14.549v106.223c0 2.761 2.239 5 5 5h142c2.761 0 5-2.239 5-5s-2.239-5-5-5h-69.25v-64.12c0-8.271 6.729-15 15-15h108.5c8.271 0 15 6.729 15 15v115.184h-69.25c-2.761 0-5 2.239-5 5s2.239 5 5 5h69.25v79.41c0 8.271-6.729 15-15 15h-27.25c-2.761 0-5 2.239-5 5s2.239 5 5 5h27.25c13.785 0 25-11.215 25-25v-79.41h57.75v101.223l-37.938 14.548c-1.894.725-3.21 2.64-3.21 4.668v50.159c0 2.071 1.276 3.927 3.21 4.668l41.147 15.779c1.141.438 2.439.437 3.58 0l41.147-15.779c1.934-.741 3.21-2.598 3.21-4.668v-50.159c.001-.307-.035-.608-.09-.904zm-293.909-308.311-31.147-11.944v-39.449l31.147 11.944zm-41.147-51.393v39.449l-31.147 11.944v-39.449zm-22.183 58.666 27.183-10.424 27.183 10.424-22.183 8.506v-4.276c0-2.761-2.239-5-5-5s-5 2.239-5 5v4.276zm306.183 293.436v4.276c0 2.761 2.239 5 5 5s5-2.239 5-5v-4.276l22.183 8.506-27.183 10.425-27.183-10.424zm-31.147 15.779 31.147 11.944v39.449l-31.147-11.944zm41.147 51.393v-39.449l31.147-11.944v39.449z"/></g></g><g><path fill="#6c6cff" d="m107.55 351.633c-1.28 0-2.559-.488-3.536-1.464l-11-11c-1.953-1.953-1.953-5.119 0-7.071l11-11c1.953-1.952 5.118-1.952 7.071 0l11 11c1.953 1.953 1.953 5.119 0 7.071l-11 11c-.976.976-2.255 1.464-3.535 1.464zm-3.929-16 3.929 3.929 3.929-3.929-3.929-3.929z"/></g><g><path fill="#ff6c6c" d="m64.458 151.843c-1.28 0-2.559-.488-3.536-1.464l-11-11c-1.953-1.953-1.953-5.119 0-7.071l11-11c1.953-1.952 5.118-1.952 7.071 0l11 11c1.953 1.953 1.953 5.119 0 7.071l-11 11c-.976.976-2.255 1.464-3.535 1.464zm-3.929-16 3.929 3.929 3.929-3.929-3.929-3.929z"/></g><g><path fill="#ff9d33" d="m447.542 361.641c-1.28 0-2.559-.488-3.536-1.464l-11-11c-1.953-1.953-1.953-5.119 0-7.071l11-11c1.953-1.952 5.118-1.952 7.071 0l11 11c1.953 1.953 1.953 5.119 0 7.071l-11 11c-.976.975-2.255 1.464-3.535 1.464zm-3.929-16 3.929 3.929 3.929-3.929-3.929-3.929z"/></g><g><path fill="#ff9d33" d="m126.562 283.54c-7.175 0-13.012-5.837-13.012-13.012s5.837-13.012 13.012-13.012 13.012 5.837 13.012 13.012-5.837 13.012-13.012 13.012zm0-16.023c-1.661 0-3.012 1.351-3.012 3.012s1.351 3.012 3.012 3.012 3.012-1.351 3.012-3.012-1.351-3.012-3.012-3.012z"/></g><g><path fill="#6c6cff" d="m380.104 216.229c-7.175 0-13.012-5.837-13.012-13.012s5.837-13.012 13.012-13.012 13.012 5.837 13.012 13.012-5.837 13.012-13.012 13.012zm0-16.024c-1.661 0-3.012 1.351-3.012 3.012s1.351 3.012 3.012 3.012 3.012-1.351 3.012-3.012-1.35-3.012-3.012-3.012z"/></g></svg>