<svg xmlns="http://www.w3.org/2000/svg" width="512" height="512" viewBox="0 0 512 512"><linearGradient id="a" x1="430.994" x2="-9.006" y1="525.065" y2="-10.935" gradientUnits="userSpaceOnUse"><stop offset=".002" stop-color="#ff9494"/><stop offset=".992" stop-color="#ffe8dc" stop-opacity="0"/></linearGradient><path fill="url(#a)" d="m419.843 204.806c1.055-7.758 1.571-15.687 1.509-23.748-.692-90.025-74.256-163.486-164.281-164.057-91.815-.581-166.428 73.673-166.428 165.354 0 7.615.516 15.109 1.513 22.45 4.043 29.747-9.887 59.143-35.212 75.263-35.611 22.668-56.944 51.54-56.944 82.98 0 72.876 114.615 131.954 256 131.954s256-59.078 256-131.954c0-31.44-21.334-60.312-56.946-82.98-25.325-16.12-39.254-45.516-35.211-75.262z"/><path fill="#00c" d="m423.165 454.964h-331.904c-10.52 0-19.048-8.528-19.048-19.048v-349.904c0-10.52 8.528-19.048 19.048-19.048h331.905c10.52 0 19.048 8.528 19.048 19.048v349.905c-.001 10.519-8.529 19.047-19.049 19.047z" opacity=".1"/><path fill="#fff" d="m423.165 433.964h-331.904c-10.52 0-19.048-8.528-19.048-19.048v-349.904c0-10.52 8.528-19.048 19.048-19.048h331.905c10.52 0 19.048 8.528 19.048 19.048v349.905c-.001 10.519-8.529 19.047-19.049 19.047z"/><path fill="#ffe8dc" d="m187.833 264.234c-.23.71-.65 1.39-1.25 1.97l-10.29 10.03c-1.18 1.15-1.72 2.8-1.44 4.42l2.43 14.17c.7 4.08-3.59 7.19-7.25 5.27l-12.72-6.69c-1.46-.77-3.2-.77-4.66 0l-12.71 6.69c-3.67 1.92-7.96-1.19-7.26-5.27l2.43-14.17c.28-1.62-.26-3.27-1.44-4.42l-10.29-10.03c-.6-.58-1.01-1.26-1.25-1.97-.95-2.78.75-6.08 4.03-6.56l14.21-2.06c1.63-.24 3.04-1.26 3.77-2.74l6.36-12.88c1.83-3.72 7.13-3.72 8.96 0l6.36 12.88c.73 1.48 2.14 2.5 3.77 2.74l14.22 2.06c3.27.48 4.97 3.78 4.02 6.56z"/><path fill="#ffe8dc" d="m290.063 264.234c-.24.71-.65 1.39-1.25 1.97l-10.29 10.03c-1.18 1.15-1.72 2.8-1.44 4.42l2.43 14.17c.7 4.08-3.59 7.19-7.26 5.27l-12.71-6.69c-1.46-.77-3.2-.77-4.66 0l-12.71 6.69c-3.67 1.92-7.96-1.19-7.26-5.27l2.43-14.17c.28-1.62-.26-3.27-1.44-4.42l-10.29-10.03c-.6-.58-1.01-1.26-1.25-1.97-.95-2.78.75-6.08 4.02-6.56l14.22-2.06c1.63-.24 3.04-1.26 3.77-2.74l6.36-12.88c1.83-3.72 7.13-3.72 8.96 0l6.36 12.88c.73 1.48 2.14 2.5 3.77 2.74l14.22 2.06c3.27.48 4.97 3.78 4.02 6.56z"/><path fill="#ffe8dc" d="m392.293 264.234c-.24.71-.65 1.39-1.25 1.97l-10.29 10.03c-1.18 1.15-1.72 2.8-1.44 4.42l2.43 14.17c.7 4.08-3.59 7.19-7.26 5.27l-12.71-6.69c-1.46-.77-3.2-.77-4.66 0l-12.72 6.69c-3.66 1.92-7.95-1.19-7.25-5.27l2.43-14.17c.28-1.62-.26-3.27-1.44-4.42l-10.29-10.03c-.6-.58-1.02-1.26-1.25-1.97-.95-2.78.75-6.08 4.02-6.56l14.22-2.06c1.63-.24 3.04-1.26 3.77-2.74l6.36-12.88c1.83-3.72 7.13-3.72 8.96 0l6.36 12.88c.73 1.48 2.14 2.5 3.77 2.74l14.21 2.06c3.28.48 4.98 3.78 4.03 6.56z"/><path fill="#ffe8dc" d="m72.213 168.186h370v96.044h-370z"/><g fill="#ffd6bb"><path d="m187.833 264.234h-65.7c-.95-2.78.75-6.08 4.03-6.56l14.21-2.06c1.63-.24 3.04-1.26 3.77-2.74l6.36-12.88c1.83-3.72 7.13-3.72 8.96 0l6.36 12.88c.73 1.48 2.14 2.5 3.77 2.74l14.22 2.06c3.27.48 4.97 3.78 4.02 6.56z"/><path d="m290.063 264.234h-65.7c-.95-2.78.75-6.08 4.02-6.56l14.22-2.06c1.63-.24 3.04-1.26 3.77-2.74l6.36-12.88c1.83-3.72 7.13-3.72 8.96 0l6.36 12.88c.73 1.48 2.14 2.5 3.77 2.74l14.22 2.06c3.27.48 4.97 3.78 4.02 6.56z"/><path d="m392.293 264.234h-65.7c-.95-2.78.75-6.08 4.02-6.56l14.22-2.06c1.63-.24 3.04-1.26 3.77-2.74l6.36-12.88c1.83-3.72 7.13-3.72 8.96 0l6.36 12.88c.73 1.48 2.14 2.5 3.77 2.74l14.21 2.06c3.28.48 4.98 3.78 4.03 6.56z"/><path d="m159.468 155.523 6.359 12.884c.728 1.476 2.136 2.499 3.765 2.735l14.218 2.066c4.101.596 5.739 5.636 2.771 8.528l-10.288 10.029c-1.178 1.149-1.716 2.804-1.438 4.426l2.429 14.161c.701 4.085-3.587 7.199-7.255 5.271l-12.717-6.686c-1.457-.766-3.197-.766-4.653 0l-12.717 6.686c-3.668 1.928-7.955-1.186-7.255-5.271l2.429-14.161c.278-1.622-.26-3.277-1.438-4.426l-10.288-10.029c-2.968-2.893-1.33-7.933 2.771-8.528l14.218-2.066c1.629-.237 3.036-1.259 3.765-2.735l6.359-12.884c1.832-3.717 7.131-3.717 8.965 0z"/><path d="m261.697 155.523 6.359 12.884c.728 1.476 2.136 2.499 3.765 2.735l14.218 2.066c4.101.596 5.739 5.636 2.771 8.528l-10.288 10.029c-1.178 1.149-1.716 2.804-1.438 4.426l2.429 14.161c.701 4.085-3.587 7.199-7.255 5.271l-12.717-6.686c-1.457-.766-3.197-.766-4.653 0l-12.717 6.686c-3.668 1.928-7.955-1.186-7.255-5.271l2.429-14.161c.278-1.622-.26-3.277-1.438-4.426l-10.288-10.029c-2.968-2.893-1.33-7.933 2.771-8.528l14.218-2.066c1.629-.237 3.036-1.259 3.765-2.735l6.359-12.884c1.831-3.717 7.131-3.717 8.965 0z"/><path d="m363.925 155.523 6.359 12.884c.728 1.476 2.136 2.499 3.765 2.735l14.218 2.066c4.101.596 5.739 5.636 2.771 8.528l-10.288 10.029c-1.178 1.149-1.716 2.804-1.438 4.426l2.429 14.161c.701 4.085-3.587 7.199-7.255 5.271l-12.717-6.686c-1.457-.766-3.197-.766-4.653 0l-12.717 6.686c-3.668 1.928-7.955-1.186-7.255-5.271l2.429-14.161c.278-1.622-.26-3.277-1.438-4.426l-10.288-10.029c-2.968-2.893-1.33-7.933 2.771-8.528l14.218-2.066c1.629-.237 3.036-1.259 3.765-2.735l6.359-12.884c1.832-3.717 7.131-3.717 8.965 0z"/></g><path fill="#ff8b00" d="m159.468 145.025 6.359 12.884c.728 1.476 2.136 2.499 3.765 2.735l14.218 2.066c4.101.596 5.739 5.636 2.771 8.528l-10.288 10.029c-1.178 1.149-1.716 2.804-1.438 4.426l2.429 14.161c.701 4.085-3.587 7.199-7.255 5.271l-12.717-6.686c-1.457-.766-3.197-.766-4.653 0l-12.717 6.686c-3.668 1.928-7.955-1.186-7.255-5.271l2.429-14.161c.278-1.622-.26-3.277-1.438-4.426l-10.288-10.029c-2.968-2.893-1.33-7.933 2.771-8.528l14.218-2.066c1.629-.237 3.036-1.259 3.765-2.735l6.359-12.884c1.832-3.717 7.131-3.717 8.965 0z"/><path fill="#ff8b00" d="m261.697 145.025 6.359 12.884c.728 1.476 2.136 2.499 3.765 2.735l14.218 2.066c4.101.596 5.739 5.636 2.771 8.528l-10.288 10.029c-1.178 1.149-1.716 2.804-1.438 4.426l2.429 14.161c.701 4.085-3.587 7.199-7.255 5.271l-12.717-6.686c-1.457-.766-3.197-.766-4.653 0l-12.717 6.686c-3.668 1.928-7.955-1.186-7.255-5.271l2.429-14.161c.278-1.622-.26-3.277-1.438-4.426l-10.288-10.029c-2.968-2.893-1.33-7.933 2.771-8.528l14.218-2.066c1.629-.237 3.036-1.259 3.765-2.735l6.359-12.884c1.831-3.717 7.131-3.717 8.965 0z"/><path fill="#ff8b00" d="m363.925 145.025 6.359 12.884c.728 1.476 2.136 2.499 3.765 2.735l14.218 2.066c4.101.596 5.739 5.636 2.771 8.528l-10.288 10.029c-1.178 1.149-1.716 2.804-1.438 4.426l2.429 14.161c.701 4.085-3.587 7.199-7.255 5.271l-12.717-6.686c-1.457-.766-3.197-.766-4.653 0l-12.717 6.686c-3.668 1.928-7.955-1.186-7.255-5.271l2.429-14.161c.278-1.622-.26-3.277-1.438-4.426l-10.288-10.029c-2.968-2.893-1.33-7.933 2.771-8.528l14.218-2.066c1.629-.237 3.036-1.259 3.765-2.735l6.359-12.884c1.832-3.717 7.131-3.717 8.965 0z"/><path fill="#ff8b00" d="m159.468 229.493 6.359 12.884c.728 1.476 2.136 2.499 3.765 2.735l14.218 2.066c4.101.596 5.739 5.636 2.771 8.528l-10.288 10.029c-1.178 1.149-1.716 2.804-1.438 4.426l2.429 14.161c.701 4.085-3.587 7.199-7.255 5.271l-12.717-6.686c-1.457-.766-3.197-.766-4.653 0l-12.717 6.686c-3.668 1.928-7.955-1.186-7.255-5.271l2.429-14.161c.278-1.622-.26-3.277-1.438-4.426l-10.288-10.029c-2.968-2.893-1.33-7.933 2.771-8.528l14.218-2.066c1.629-.237 3.036-1.259 3.765-2.735l6.359-12.884c1.832-3.717 7.131-3.717 8.965 0z"/><path fill="#ff8b00" d="m261.697 229.493 6.359 12.884c.728 1.476 2.136 2.499 3.765 2.735l14.218 2.066c4.101.596 5.739 5.636 2.771 8.528l-10.288 10.029c-1.178 1.149-1.716 2.804-1.438 4.426l2.429 14.161c.701 4.085-3.587 7.199-7.255 5.271l-12.717-6.686c-1.457-.766-3.197-.766-4.653 0l-12.717 6.686c-3.668 1.928-7.955-1.186-7.255-5.271l2.429-14.161c.278-1.622-.26-3.277-1.438-4.426l-10.288-10.029c-2.968-2.893-1.33-7.933 2.771-8.528l14.218-2.066c1.629-.237 3.036-1.259 3.765-2.735l6.359-12.884c1.831-3.717 7.131-3.717 8.965 0z"/><path fill="#ff8b00" d="m363.925 229.493 6.359 12.884c.728 1.476 2.136 2.499 3.765 2.735l14.218 2.066c4.101.596 5.739 5.636 2.771 8.528l-10.288 10.029c-1.178 1.149-1.716 2.804-1.438 4.426l2.429 14.161c.701 4.085-3.587 7.199-7.255 5.271l-12.717-6.686c-1.457-.766-3.197-.766-4.653 0l-12.717 6.686c-3.668 1.928-7.955-1.186-7.255-5.271l2.429-14.161c.278-1.622-.26-3.277-1.438-4.426l-10.288-10.029c-2.968-2.893-1.33-7.933 2.771-8.528l14.218-2.066c1.629-.237 3.036-1.259 3.765-2.735l6.359-12.884c1.832-3.717 7.131-3.717 8.965 0z"/><path fill="#b3b3ff" d="m442.213 102.155v-37.143c0-10.52-8.528-19.048-19.048-19.048h-331.904c-10.52 0-19.048 8.528-19.048 19.048v37.143z"/><path fill="#00c" d="m109.5 97.154c-2.762 0-5 2.238-5 5s2.238 5 5 5h332.713c2.762 0 5-2.238 5-5v-37.142c0-13.26-10.788-24.048-24.048-24.048h-331.904c-13.26 0-24.048 10.788-24.048 24.048v349.904c0 13.26 10.788 24.048 24.048 24.048h331.904c13.26 0 24.048-10.788 24.048-24.048v-278.761c0-2.762-2.238-5-5-5s-5 2.238-5 5v278.761c0 7.746-6.302 14.048-14.048 14.048h-331.904c-7.746 0-14.048-6.302-14.048-14.048v-349.904c0-7.746 6.302-14.048 14.048-14.048h331.904c7.746 0 14.048 6.302 14.048 14.048v32.143h-327.713z"/><path fill="#ff4d4d" d="m400.713 79.059h-16.52c-2.762 0-5-2.239-5-5s2.238-5 5-5h16.52c2.762 0 5 2.239 5 5s-2.238 5-5 5z"/><path fill="#ff9d33" d="m362.213 79.059h-16.52c-2.762 0-5-2.239-5-5s2.238-5 5-5h16.52c2.762 0 5 2.239 5 5s-2.238 5-5 5z"/><path fill="#ebebff" d="m306.713 79.059h-136.52c-2.762 0-5-2.239-5-5s2.238-5 5-5h136.52c2.762 0 5 2.239 5 5s-2.238 5-5 5z"/><path fill="#d9d9ff" d="m144.756 390.192h-12.5c-2.762 0-5-2.239-5-5s2.238-5 5-5h12.5c2.762 0 5 2.239 5 5s-2.238 5-5 5z"/><path fill="#d9d9ff" d="m237.756 390.192h-72.5c-2.762 0-5-2.239-5-5s2.238-5 5-5h72.5c2.762 0 5 2.239 5 5s-2.238 5-5 5z"/><path fill="#d9d9ff" d="m174.756 372.966h-42.5c-2.762 0-5-2.239-5-5s2.238-5 5-5h42.5c2.762 0 5 2.239 5 5s-2.238 5-5 5z"/><path fill="#ff8b00" d="m144.756 348.192h-12.5c-2.762 0-5-2.239-5-5s2.238-5 5-5h12.5c2.762 0 5 2.239 5 5s-2.238 5-5 5z"/><path fill="#ffab66" d="m375.557 378.579c-9.16 0-16.613-7.453-16.613-16.613s7.453-16.613 16.613-16.613 16.613 7.453 16.613 16.613-7.453 16.613-16.613 16.613zm0-23.226c-3.646 0-6.613 2.967-6.613 6.613s2.967 6.613 6.613 6.613 6.613-2.967 6.613-6.613-2.967-6.613-6.613-6.613z"/><path fill="#ffab66" d="m387.17 390.192c-2.762 0-5-2.238-5-5 0-3.646-2.967-6.613-6.613-6.613s-6.613 2.967-6.613 6.613c0 2.762-2.238 5-5 5s-5-2.238-5-5c0-9.16 7.453-16.613 16.613-16.613s16.613 7.453 16.613 16.613c0 2.762-2.238 5-5 5z"/><path fill="#d9d9ff" d="m343.057 390.192h-12.5c-2.762 0-5-2.239-5-5s2.238-5 5-5h12.5c2.762 0 5 2.239 5 5s-2.239 5-5 5z"/><path fill="#d9d9ff" d="m343.057 372.966h-12.5c-2.762 0-5-2.239-5-5s2.238-5 5-5h12.5c2.762 0 5 2.239 5 5s-2.239 5-5 5z"/><path fill="#ff9d33" d="m63.787 471.036c-1.279 0-2.56-.488-3.535-1.465l-6.465-6.464-6.465 6.464c-1.951 1.953-5.119 1.953-7.07 0-1.953-1.952-1.953-5.118 0-7.07l10-10c1.951-1.953 5.119-1.953 7.07 0l10 10c1.953 1.952 1.953 5.118 0 7.07-.975.977-2.256 1.465-3.535 1.465z"/><path fill="#6c6cff" d="m483.213 361.438c-1.279 0-2.56-.488-3.535-1.465l-6.465-6.464-6.465 6.464c-1.951 1.953-5.119 1.953-7.07 0-1.953-1.952-1.953-5.118 0-7.07l10-10c1.951-1.953 5.119-1.953 7.07 0l10 10c1.953 1.952 1.953 5.118 0 7.07-.976.976-2.256 1.465-3.535 1.465z"/><path fill="#ff6c6c" d="m30.787 206.605c-1.279 0-2.56-.488-3.535-1.465-1.953-1.952-1.953-5.118 0-7.07l10-10c1.951-1.953 5.119-1.953 7.07 0 1.953 1.952 1.953 5.118 0 7.07l-10 10c-.975.977-2.256 1.465-3.535 1.465z"/><path fill="#ff6c6c" d="m458.213 260.464c-1.279 0-2.56-.488-3.535-1.465-1.953-1.952-1.953-5.118 0-7.07l10-10c1.951-1.953 5.119-1.953 7.07 0 1.953 1.952 1.953 5.118 0 7.07l-10 10c-.976.977-2.256 1.465-3.535 1.465z"/><path fill="#6c6cff" d="m48.787 144.521c-1.279 0-2.56-.488-3.535-1.465l-6.465-6.464-6.465 6.464c-1.951 1.953-5.119 1.953-7.07 0-1.953-1.952-1.953-5.118 0-7.07l10-10c1.951-1.953 5.119-1.953 7.07 0l10 10c1.953 1.952 1.953 5.118 0 7.07-.975.976-2.256 1.465-3.535 1.465z"/></svg>