<svg xmlns="http://www.w3.org/2000/svg" width="512" height="512" viewBox="0 0 512 512"><linearGradient id="a" x1="1068.089" x2="528.034" y1="-2442.263" y2="-2754.295" gradientTransform="matrix(1 0 0 -1 -561.6 -2330.99)" gradientUnits="userSpaceOnUse"><stop offset="0" stop-color="#fff3ee" stop-opacity="0"/><stop offset=".294" stop-color="#ffeade" stop-opacity=".373"/><stop offset=".787" stop-color="#ffd6bb"/></linearGradient><path fill="url(#a)" d="m361.231 275.692c-56.758 0-102.769-46.011-102.769-102.769v-65.231c0-59.477-48.216-107.692-107.693-107.692s-107.692 48.215-107.692 107.692v86.154c0 175.712 142.442 318.154 318.153 318.154 59.477 0 107.692-48.215 107.692-107.692v-20.923c.001-59.477-48.214-107.693-107.691-107.693z"/><path fill="#2626bc" d="m481.99 391.95v25.21c0 5.52-4.47 10-10 10h-431.98c-5.53 0-10-4.48-10-10v-25.21c0-5.52 4.47-10 10-10h136.005c1.451 0 2.831.63 3.78 1.728l12.875 14.872h126.66l12.875-14.872c.95-1.097 2.329-1.728 3.78-1.728h136.005c5.53 0 10 4.48 10 10z" opacity=".1"/><path fill="#8383ff" d="m452.044 378.634h-392.088v-249.734c0-9.505 7.705-17.21 17.21-17.21h357.669c9.505 0 17.21 7.705 17.21 17.21v249.734z"/><path fill="#d9d9ff" d="m481.99 364.95v25.21c0 5.52-4.47 10-10 10h-431.98c-5.53 0-10-4.48-10-10v-25.21c0-5.52 4.47-10 10-10h136.005c1.451 0 2.831.63 3.78 1.728l12.875 14.872h126.66l12.875-14.872c.95-1.097 2.329-1.728 3.78-1.728h136.005c5.53 0 10 4.48 10 10z"/><g fill="#2626bc"><path d="m182.3 116.69h252.534c6.732 0 12.209 5.477 12.209 12.209v195.45c0 2.761 2.239 5 5 5s5-2.239 5-5v-195.45c0-12.246-9.963-22.209-22.209-22.209h-252.534c-2.761 0-5 2.239-5 5s2.239 5 5 5z"/><path d="m471.99 349.95h-136.005c-2.903 0-5.659 1.259-7.561 3.455l-11.379 13.145h-122.09l-11.379-13.146c-1.901-2.195-4.657-3.455-7.56-3.455h-111.06v-221.05c0-6.732 5.477-12.209 12.209-12.209h74.535c2.761 0 5-2.239 5-5s-2.239-5-5-5h-74.534c-12.247 0-22.209 9.963-22.209 22.209v221.05h-14.947c-8.271 0-15 6.729-15 15v25.21c0 8.271 6.729 15 15 15h431.98c8.271 0 15-6.729 15-15v-25.21c0-8.27-6.729-14.999-15-14.999zm5 40.21c0 2.757-2.243 5-5 5h-431.98c-2.757 0-5-2.243-5-5v-25.21c0-2.757 2.243-5 5-5h136.005l12.875 14.873c.95 1.097 2.329 1.728 3.78 1.728h126.66c1.451 0 2.831-.63 3.78-1.728l12.875-14.873h136.005c2.757 0 5 2.243 5 5z"/></g><path fill="#fff" d="m423.828 330.976h-335.656c-2.761 0-5-2.239-5-5v-184.432c0-2.761 2.239-5 5-5h335.656c2.761 0 5 2.239 5 5v184.432c0 2.761-2.238 5-5 5z"/><path fill="#f7f3ff" d="m148.393 216.783-13.312-9.069-13.312 9.069c-3.319 2.261-7.815-.116-7.815-4.132v-61.617h42.255v61.617c-.001 4.016-4.497 6.393-7.816 4.132z"/><path fill="#fee" d="m307.09 149.17c0-3.36 2.91-6.79 8.73-10.28 1.51-.87 3.08-1.65 4.7-2.35h-28.76c-11.63 9.72-17.45 20.33-17.45 31.83 0 6.86 2.16 12.48 6.5 16.88 4.33 4.39 9.73 6.59 16.19 6.59 6.08 0 10.99-1.84 14.74-5.53 3.75-3.68 5.63-8.43 5.63-14.25 0-4.01-1.88-8.6-5.63-13.77-3.1-4.14-4.65-7.18-4.65-9.12zm116.37 135.19c-2.85-4.14-4.27-10.6-4.27-19.4v-99.3c0-11.07-3.85-20.77-11.55-29.12h-41.32c3.12 1.55 6 3.5 8.65 5.84 7.89 6.99 11.83 15.39 11.83 25.22v27.54c-36.85 4.14-66.36 12.45-88.54 24.92-22.17 12.48-33.26 28.16-33.26 47.04 0 12.54 4.85 22.82 14.55 30.83 9.69 8.02 23.85 12.03 42.47 12.03 13.06 0 24.25-2.17 33.56-6.5s20.1-12.96 32.39-25.89c4.52 12.02 9.79 20.43 15.8 25.21 6.02 4.79 13.42 7.18 22.21 7.18.96 0 1.91-.03 2.85-.11v-20.43c-2.04-1.06-3.83-2.75-5.37-5.06zm-36.66-50.43c0 17.46-5.59 31.97-16.77 43.54-11.19 11.58-24.41 17.36-39.67 17.36-8.53 0-15.45-2.81-20.75-8.44-5.3-5.62-7.95-13.41-7.95-23.37 0-14.22 5.1-25.21 15.32-32.97 13.7-10.21 36.98-17.58 69.82-22.11z"/><path fill="#ff6c6c" d="m148.393 202.292-13.312-9.069-13.312 9.069c-3.319 2.261-7.815-.116-7.815-4.132v-61.617h42.255v61.617c-.001 4.016-4.497 6.393-7.816 4.132z"/><path fill="#ff6c6c" d="m400.541 203.601h-175.52c-2.762 0-5-2.239-5-5s2.238-5 5-5h175.52c2.762 0 5 2.239 5 5s-2.238 5-5 5z"/><path fill="#ff6c6c" d="m400.541 223.104h-175.52c-2.762 0-5-2.239-5-5s2.238-5 5-5h175.52c2.762 0 5 2.239 5 5s-2.238 5-5 5z"/><path fill="#ff6c6c" d="m400.541 242.607h-175.52c-2.762 0-5-2.239-5-5s2.238-5 5-5h175.52c2.762 0 5 2.239 5 5s-2.238 5-5 5z"/><path fill="#ff6c6c" d="m400.541 262.109h-175.52c-2.762 0-5-2.239-5-5s2.238-5 5-5h175.52c2.762 0 5 2.239 5 5 0 2.762-2.238 5-5 5z"/><path fill="#ff6c6c" d="m400.541 281.612h-175.52c-2.762 0-5-2.239-5-5s2.238-5 5-5h175.52c2.762 0 5 2.239 5 5s-2.238 5-5 5z"/><path fill="#ff6c6c" d="m400.541 291.115c2.762 0 5 2.239 5 5s-2.238 5-5 5h-175.52c-2.762 0-5-2.239-5-5s2.238-5 5-5z"/><g><path fill="#8383ff" d="m160.979 248.607h-49.52c-2.762 0-5-2.239-5-5s2.238-5 5-5h49.52c2.762 0 5 2.239 5 5s-2.239 5-5 5z"/><path fill="#8383ff" d="m187.979 266.109h-76.52c-2.762 0-5-2.239-5-5s2.238-5 5-5h76.52c2.762 0 5 2.239 5 5s-2.239 5-5 5z"/><path fill="#8383ff" d="m187.979 283.612h-76.52c-2.762 0-5-2.239-5-5s2.238-5 5-5h76.52c2.762 0 5 2.239 5 5s-2.239 5-5 5z"/><path fill="#8383ff" d="m187.979 301.115h-76.52c-2.762 0-5-2.239-5-5s2.238-5 5-5h76.52c2.762 0 5 2.239 5 5s-2.239 5-5 5z"/><g fill="#8383ff"><circle cx="113.006" cy="225.556" r="5"/><circle cx="129.256" cy="225.556" r="5"/></g></g><g><path fill="#ff7300" d="m236 172.107c-1.28 0-2.559-.488-3.536-1.465l-2.298-2.298-2.298 2.298c-1.953 1.952-5.118 1.952-7.071 0-1.953-1.953-1.953-5.119 0-7.071l5.834-5.834c.938-.938 2.209-1.464 3.536-1.464 1.326 0 2.598.527 3.536 1.465l5.833 5.834c1.953 1.953 1.953 5.118 0 7.071-.977.976-2.257 1.464-3.536 1.464z"/></g><path fill="#ff6c6c" d="m282.31 68.8h-3v-3c0-2.761-2.239-5-5-5s-5 2.239-5 5v3h-3c-2.761 0-5 2.239-5 5s2.239 5 5 5h3v3c0 2.761 2.239 5 5 5s5-2.239 5-5v-3h3c2.761 0 5-2.239 5-5s-2.239-5-5-5z"/><path fill="#ff9d33" d="m208.979 50.02h-3v-3c0-2.761-2.239-5-5-5s-5 2.239-5 5v3h-3c-2.761 0-5 2.239-5 5s2.239 5 5 5h3v3c0 2.761 2.239 5 5 5s5-2.239 5-5v-3h3c2.761 0 5-2.239 5-5s-2.239-5-5-5z"/><path fill="#ff9d33" d="m172.208 444.2h-3v-3c0-2.761-2.239-5-5-5s-5 2.239-5 5v3h-3c-2.761 0-5 2.239-5 5s2.239 5 5 5h3v3c0 2.761 2.239 5 5 5s5-2.239 5-5v-3h3c2.761 0 5-2.239 5-5s-2.238-5-5-5z"/><g fill="#8383ff"><path d="m336.52 45.2c-1.28 0-2.559-.488-3.536-1.464l-4.464-4.465-4.464 4.465c-1.952 1.952-5.118 1.952-7.071 0-1.953-1.953-1.953-5.118 0-7.071l8-8c.938-.938 2.209-1.464 3.536-1.464s2.598.527 3.536 1.464l8 8c1.953 1.953 1.953 5.119 0 7.071-.978.976-2.258 1.464-3.537 1.464z"/><path d="m228.021 466.2c-1.28 0-2.559-.488-3.536-1.464l-4.464-4.465-4.464 4.465c-1.952 1.952-5.118 1.952-7.071 0-1.953-1.953-1.953-5.118 0-7.071l8-8c.938-.938 2.209-1.464 3.536-1.464s2.598.527 3.536 1.464l8 8c1.953 1.953 1.953 5.119 0 7.071-.977.976-2.257 1.464-3.537 1.464z"/></g></svg>