<svg xmlns="http://www.w3.org/2000/svg" width="512" height="512" viewBox="0 0 512 512"><linearGradient id="a" x1="599.886" x2="63.886" y1="18.264" y2="438.264" gradientUnits="userSpaceOnUse"><stop offset=".007" stop-color="#9494ff"/><stop offset=".992" stop-color="#ffe8dc" stop-opacity="0"/></linearGradient><path fill="url(#a)" d="m419.843 204.806c1.055-7.758 1.571-15.687 1.509-23.748-.692-90.025-74.256-163.486-164.281-164.057-91.815-.581-166.428 73.673-166.428 165.354 0 7.615.516 15.109 1.513 22.45 4.043 29.747-9.887 59.143-35.212 75.263-35.611 22.668-56.944 51.54-56.944 82.98 0 72.876 114.615 131.954 256 131.954s256-59.078 256-131.954c0-31.44-21.334-60.312-56.946-82.98-25.325-16.12-39.254-45.516-35.211-75.262z"/><path fill="#00c" d="m465.105 172.343h-24.105v-78.223c0-10.52-8.528-19.048-19.048-19.048h-331.904c-10.52 0-19.048 8.528-19.048 19.048v164.499h-24.105c-5.523 0-10 4.477-10 10v78.137c0 5.523 4.477 10 10 10h24.105v87.269c0 10.52 8.528 19.048 19.048 19.048h203.679l21.571 21.571c3.905 3.905 10.237 3.905 14.142 0l21.571-21.571h70.941c10.52 0 19.048-8.528 19.048-19.048v-146.544h24.105c5.523 0 10-4.477 10-10v-105.138c0-5.523-4.478-10-10-10z" opacity=".1"/><path fill="#fff" d="m421.952 54.072h-331.904c-10.52 0-19.048 8.528-19.048 19.048v349.905c0 10.52 8.528 19.048 19.048 19.048h203.679l21.571 21.571c3.905 3.905 10.237 3.905 14.142 0l21.571-21.571h70.941c10.52 0 19.048-8.528 19.048-19.048v-349.905c0-10.52-8.528-19.048-19.048-19.048z"/><path fill="#4d4dff" d="m71 377.572v45.452c0 10.52 8.528 19.048 19.048 19.048h203.679l21.571 21.571c3.905 3.905 10.237 3.905 14.142 0l21.571-21.571h70.941c10.52 0 19.048-8.528 19.048-19.048v-45.452z"/><ellipse cx="178.947" cy="177.437" fill="#fee" rx="32.474" ry="9.862"/><ellipse cx="334.28" cy="294.624" fill="#ffe8dc" rx="32.474" ry="9.862"/><path fill="#ff6c6c" d="m239.1 68.862v78.14c0 5.52-4.47 10-10 10h-28.84l-15.211 15.211c-3.905 3.905-10.235 3.905-14.141.002l-15.219-15.212h-84.689v-83.88c0-5.67 2.48-10.77 6.42-14.26h151.68c5.53-.001 10 4.479 10 9.999z"/><path fill="#b3b3ff" d="m441 110.262v-37.142c0-10.52-8.528-19.048-19.048-19.048h-331.904c-10.52 0-19.048 8.528-19.048 19.048v37.143h370z"/><path fill="#ff4d4d" d="m399.5 87.167h-16.52c-2.762 0-5-2.239-5-5s2.238-5 5-5h16.52c2.762 0 5 2.239 5 5s-2.238 5-5 5z"/><path fill="#ff9d33" d="m361 87.167h-16.52c-2.762 0-5-2.239-5-5s2.238-5 5-5h16.52c2.762 0 5 2.239 5 5s-2.238 5-5 5z"/><path fill="#ebebff" d="m305.5 87.167h-136.52c-2.762 0-5-2.239-5-5s2.238-5 5-5h136.52c2.762 0 5 2.239 5 5s-2.238 5-5 5z"/><path fill="#fff" d="m114.283 405.407h225.5c2.762 0 5 2.239 5 5s-2.238 5-5 5h-225.5c-2.762 0-5-2.239-5-5s2.238-5 5-5z"/><path fill="#fff" d="m396.884 421.241c-1.279 0-2.56-.488-3.535-1.465-1.953-1.952-1.953-5.118 0-7.07l2.298-2.299-2.298-2.297c-1.953-1.953-1.953-5.118-.001-7.071 1.953-1.953 5.118-1.952 7.071-.001l5.834 5.833c.938.938 1.465 2.21 1.465 3.536s-.526 2.598-1.465 3.535l-5.834 5.834c-.976.977-2.256 1.465-3.535 1.465z"/><path fill="#fff" d="m372.434 421.241c-1.279 0-2.56-.488-3.535-1.465-1.953-1.952-1.953-5.118 0-7.07l2.298-2.299-2.298-2.297c-1.953-1.953-1.953-5.118-.001-7.071 1.953-1.953 5.118-1.952 7.071-.001l5.834 5.833c.938.938 1.465 2.21 1.465 3.536s-.526 2.598-1.465 3.535l-5.834 5.834c-.976.977-2.256 1.465-3.535 1.465z"/><path fill="#ff9d33" d="m465.105 151.343h-182.21c-5.523 0-10 4.477-10 10v105.137c0 5.523 4.477 10 10 10h28.843l15.214 15.214c3.905 3.905 10.237 3.905 14.142 0l15.214-15.214h108.796c5.523 0 10-4.477 10-10v-105.137c.001-5.523-4.476-10-9.999-10z"/><g fill="#ff7300"><path d="m315.383 210.742h-12.5c-2.762 0-5-2.239-5-5s2.238-5 5-5h12.5c2.762 0 5 2.239 5 5s-2.238 5-5 5z"/><path d="m396.383 210.742h-60.5c-2.762 0-5-2.239-5-5s2.238-5 5-5h60.5c2.762 0 5 2.239 5 5s-2.238 5-5 5z"/><path d="m345.383 193.515h-42.5c-2.762 0-5-2.239-5-5s2.238-5 5-5h42.5c2.762 0 5 2.239 5 5s-2.238 5-5 5z"/><path d="m408.383 217.828h-105.5c-2.762 0-5 2.239-5 5s2.238 5 5 5h105.5c2.762 0 5-2.239 5-5s-2.238-5-5-5z"/><path d="m408.383 234.915h-105.5c-2.762 0-5 2.239-5 5s2.238 5 5 5h105.5c2.762 0 5-2.239 5-5s-2.238-5-5-5z"/></g><ellipse cx="178.947" cy="353.899" fill="#fee" rx="32.474" ry="9.862"/><path fill="#ff6c6c" d="m46.895 237.618h182.209c5.523 0 10 4.477 10 10v78.137c0 5.523-4.477 10-10 10h-28.843l-15.214 15.214c-3.905 3.905-10.237 3.905-14.142 0l-15.214-15.214h-108.796c-5.523 0-10-4.477-10-10v-78.137c0-5.523 4.478-10 10-10z"/><path fill="#ff2c2c" d="m196.565 291.877h12.5c2.762 0 5-2.239 5-5s-2.238-5-5-5h-12.5c-2.762 0-5 2.239-5 5s2.239 5 5 5z"/><path fill="#ff2c2c" d="m115.565 291.877h60.5c2.762 0 5-2.239 5-5s-2.238-5-5-5h-60.5c-2.762 0-5 2.239-5 5s2.239 5 5 5z"/><path fill="#ff2c2c" d="m166.565 274.651h42.5c2.762 0 5-2.239 5-5s-2.238-5-5-5h-42.5c-2.762 0-5 2.239-5 5s2.239 5 5 5z"/><path fill="#ff2c2c" d="m103.565 298.964h105.5c2.762 0 5 2.239 5 5s-2.238 5-5 5h-105.5c-2.762 0-5-2.239-5-5s2.239-5 5-5z"/><path fill="#ff9d33" d="m485.104 395.572c-1.279 0-2.56-.488-3.535-1.465l-6.465-6.464-6.465 6.464c-1.951 1.953-5.119 1.953-7.07 0-1.953-1.952-1.953-5.118 0-7.07l10-10c1.951-1.953 5.119-1.953 7.07 0l10 10c1.953 1.952 1.953 5.118 0 7.07-.975.977-2.255 1.465-3.535 1.465z"/><path fill="#ff6c6c" d="m272.896 487.572c-1.279 0-2.56-.488-3.535-1.465l-6.465-6.464-6.464 6.464c-1.953 1.953-5.118 1.953-7.071 0-1.953-1.952-1.953-5.118 0-7.07l10-10c1.951-1.953 5.119-1.953 7.07 0l10 10c1.953 1.952 1.953 5.118 0 7.07-.976.977-2.256 1.465-3.535 1.465z"/><path fill="#ff9d33" d="m349.48 39.428c-1.279 0-2.56-.488-3.535-1.465l-6.465-6.464-6.465 6.464c-1.951 1.953-5.119 1.953-7.07 0-1.953-1.952-1.953-5.118 0-7.07l10-10c1.951-1.953 5.119-1.953 7.07 0l10 10c1.953 1.952 1.953 5.118 0 7.07-.975.976-2.255 1.465-3.535 1.465z"/><path fill="#6c6cff" d="m40.896 198.606c-1.28 0-2.559-.488-3.536-1.465-1.953-1.952-1.953-5.118 0-7.07l10-10c1.953-1.953 5.118-1.953 7.071 0 1.953 1.952 1.953 5.118 0 7.07l-10 10c-.976.977-2.256 1.465-3.535 1.465z"/><path fill="#ff6c6c" d="m470.104 313.964c-1.279 0-2.56-.488-3.535-1.465-1.953-1.952-1.953-5.118 0-7.07l10-10c1.951-1.953 5.119-1.953 7.07 0 1.953 1.952 1.953 5.118 0 7.07l-10 10c-.975.977-2.255 1.465-3.535 1.465z"/><circle cx="446.446" cy="170.684" r="40.659" fill="#6c6cff"/><path fill="#fff" d="m446.446 180.931c-8.543 0-15.493-6.95-15.493-15.493 0-8.542 6.95-15.492 15.493-15.492 8.542 0 15.492 6.95 15.492 15.492s-6.95 15.493-15.492 15.493zm0-20.986c-3.029 0-5.493 2.464-5.493 5.492 0 3.029 2.464 5.493 5.493 5.493 3.028 0 5.492-2.464 5.492-5.493 0-3.028-2.463-5.492-5.492-5.492z"/><path fill="#fff" d="m456.938 191.424c-2.762 0-5-2.238-5-5 0-3.029-2.464-5.493-5.492-5.493-3.029 0-5.493 2.464-5.493 5.493 0 2.762-2.238 5-5 5s-5-2.238-5-5c0-8.543 6.95-15.493 15.493-15.493 8.542 0 15.492 6.95 15.492 15.493 0 2.762-2.238 5-5 5z"/><circle cx="65.554" cy="257.072" r="40.659" fill="#ff9d33"/><path fill="#fff" d="m65.554 267.318c-8.543 0-15.493-6.95-15.493-15.493 0-8.542 6.95-15.492 15.493-15.492 8.542 0 15.493 6.95 15.493 15.492 0 8.543-6.95 15.493-15.493 15.493zm0-20.985c-3.029 0-5.493 2.464-5.493 5.492 0 3.029 2.464 5.493 5.493 5.493s5.493-2.464 5.493-5.493c0-3.028-2.464-5.492-5.493-5.492z"/><path fill="#fff" d="m76.047 277.812c-2.761 0-5-2.238-5-5 0-3.029-2.464-5.493-5.493-5.493s-5.493 2.464-5.493 5.493c0 2.762-2.239 5-5 5s-5-2.238-5-5c0-8.543 6.95-15.493 15.493-15.493 8.542 0 15.493 6.95 15.493 15.493 0 2.761-2.239 5-5 5z"/><path fill="#00c" d="m492.104 170.685c0-25.177-20.482-45.659-45.658-45.659-.15 0-.297.01-.446.011v-51.917c0-13.26-10.788-24.048-24.048-24.048h-331.904c-13.26 0-24.048 10.788-24.048 24.048v138.304c-.149-.001-.296-.011-.446-.011-25.176 0-45.659 20.482-45.659 45.659 0 11.866 4.553 22.687 12 30.814v37.87c0 8.271 6.729 15 15 15h19.105v82.269c0 13.26 10.788 24.048 24.048 24.048h201.607l20.107 20.106c2.833 2.834 6.6 4.394 10.606 4.394s7.773-1.56 10.606-4.394l20.107-20.106h68.869c13.26 0 24.048-10.788 24.048-24.048v-122.025c0-2.762-2.238-5-5-5s-5 2.238-5 5v122.024c0 7.746-6.302 14.048-14.048 14.048h-70.94c-1.326 0-2.598.526-3.535 1.465l-21.571 21.571c-.944.944-2.2 1.464-3.536 1.464s-2.592-.52-3.536-1.464l-21.571-21.571c-.938-.938-2.209-1.465-3.535-1.465h-203.678c-7.746 0-14.048-6.302-14.048-14.048v-87.269c0-2.762-2.239-5-5-5h-24.104c-2.757 0-5-2.243-5-5v-29.645c6.904 4.2 15.004 6.62 23.659 6.62 25.176 0 45.659-20.482 45.659-45.658 0-5.051-.837-9.908-2.358-14.454h120.25c2.757 0 5 2.243 5 5v78.138c0 2.757-2.243 5-5 5h-28.843c-1.326 0-2.598.526-3.536 1.465l-15.214 15.214c-.944.944-2.2 1.464-3.536 1.464-1.335 0-2.591-.52-3.535-1.464l-15.214-15.214c-.938-.938-2.209-1.465-3.536-1.465h-50.692c-2.761 0-5 2.238-5 5s2.239 5 5 5h48.62l13.75 13.749c2.833 2.834 6.6 4.394 10.606 4.394 4.007 0 7.774-1.56 10.607-4.394l13.75-13.749h26.772c8.271 0 15-6.729 15-15v-78.138c0-8.271-6.729-15-15-15h-125.022c-6.309-9.906-16.324-17.221-28.083-19.985v-97.37h360v10.982c-11.803 2.774-21.85 10.135-28.155 20.098h-124.95c-8.271 0-15 6.729-15 15v105.137c0 8.271 6.729 15 15 15h26.771l13.75 13.749c2.833 2.833 6.6 4.394 10.606 4.394s7.773-1.56 10.606-4.394l13.75-13.749h106.725c8.271 0 15-6.729 15-15v-64.982c7.449-8.127 12.001-18.947 12.001-30.813zm-390.891 86.387c0 19.662-15.997 35.658-35.659 35.658s-35.659-15.996-35.659-35.658 15.997-35.659 35.659-35.659 35.659 15.997 35.659 35.659zm-25.213-151.809v-32.143c0-7.746 6.302-14.048 14.048-14.048h331.904c7.746 0 14.048 6.302 14.048 14.048v32.143zm370.446 29.762c19.662 0 35.658 15.997 35.658 35.659s-15.996 35.658-35.658 35.658-35.659-15.996-35.659-35.658 15.997-35.659 35.659-35.659zm18.658 136.455h-108.795c-1.326 0-2.598.526-3.535 1.465l-15.214 15.214c-.944.944-2.2 1.464-3.536 1.464-1.335 0-2.591-.52-3.535-1.464l-15.215-15.215c-.938-.938-2.209-1.464-3.535-1.464h-28.843c-2.757 0-5-2.243-5-5v-105.137c0-2.757 2.243-5 5-5h120.212c-1.498 4.514-2.32 9.332-2.32 14.342 0 25.176 20.482 45.658 45.659 45.658 8.655 0 16.754-2.42 23.658-6.62v56.758c-.001 2.756-2.244 4.999-5.001 4.999z"/></svg>