<svg xmlns="http://www.w3.org/2000/svg" id="Layer_1" x="0" y="0" version="1.1" viewBox="0 0 512 512" xml:space="preserve"><style>.st0{fill:url(#SVGID_1_)}.st1{opacity:.1;fill:#00c;enable-background:new}.st2{fill:#ff9d33}.st3{fill:#ff4d4d}.st4{fill:#fff}.st5{fill:#ff6c6c}.st6{fill:#8383ff}.st7{fill:#00c}.st8{fill:#6c6cff}.st9{fill:#ffc599}.st10{fill:#2626bc}</style><linearGradient id="SVGID_1_" x1="496.664" x2="-81.336" y1="451.253" y2="63.253" gradientTransform="matrix(1 0 0 -1 0 514)" gradientUnits="userSpaceOnUse"><stop offset=".007" stop-color="#9494ff"/><stop offset=".992" stop-color="#ffe8dc" stop-opacity="0"/></linearGradient><path d="M428.4,171.9c-8.4-8.4-18-14.9-28.7-19.8c-28-12.7-50.1-35.4-62.4-63.6C314.3,36.4,262.3,0,201.7,0	C122.4-0.1,56.6,63.2,53.6,142.4c-1.3,33.9,8.9,65.4,26.9,91c22.9,32.4,28.8,73.8,17,111.7c-16.8,53.9-10.9,104.9,21,136.8	c55.9,55.9,170.6,31.8,256.2-53.8C460.2,342.5,484.3,227.8,428.4,171.9L428.4,171.9z" class="st0"/><path d="M461.8,266.5c0-35-22.2-64.7-53.3-75.9C380,131.1,319.3,90,249.1,90c-6.6,0-13,0.4-19.4,1.1	c-14.7-15.5-35.5-25.2-58.6-25.2c-44.6,0-80.7,36.1-80.7,80.7c0,11,2.2,21.5,6.2,31.1c-15.3,26.1-24.1,56.5-24.1,88.9	s8.8,62.8,24.1,88.9c-4,9.6-6.2,20.1-6.2,31.1c0,44.6,36.1,80.7,80.7,80.7c23.1,0,43.9-9.7,58.6-25.2c6.4,0.7,12.9,1.1,19.4,1.1	c70.2,0,130.9-41.2,159.4-100.6C439.5,331.2,461.8,301.5,461.8,266.5z M249.1,100c63.1,0,118.1,35.3,146.4,87.1	c-4.7-0.8-9.5-1.3-14.4-1.3c-5.3,0-10.4,0.5-15.4,1.5c-25.4-37.3-68.2-61.8-116.6-61.8c0,0-0.1,0-0.1,0c-2.5-9.1-6.5-17.5-11.7-25.1	C241.2,100.1,245.1,100,249.1,100L249.1,100z M171.1,305.8c-6.4,0-12.5,0.8-18.5,2.2c-5.5-12.7-8.5-26.7-8.5-41.5s3-28.7,8.5-41.5	c5.9,1.4,12.1,2.2,18.5,2.2c39.4,0,72.3-28.3,79.3-65.7c33.2,0.4,62.8,16.3,81.8,40.8c-19.3,14.7-31.8,38-31.8,64.2	s12.5,49.4,31.8,64.2c-19,24.5-48.6,40.4-81.8,40.8C243.3,334.1,210.5,305.8,171.1,305.8L171.1,305.8z M340.5,196.8	c-20.6-26.9-52.7-44.5-88.9-45.3c0.1-1.7,0.2-3.3,0.2-5c0-3.7-0.3-7.4-0.8-11c42.9,0.6,80.9,22,104.4,54.5	C350.2,191.8,345.2,194,340.5,196.8z M143,222.2c-5.7,13.7-8.9,28.6-8.9,44.3s3.2,30.7,8.9,44.3c-5.1,1.9-9.9,4.3-14.4,7.1	c-6.8-15.8-10.5-33.2-10.5-51.4s3.8-35.6,10.5-51.4C133.1,217.9,137.9,220.3,143,222.2z M251.6,381.5c36.2-0.8,68.3-18.4,88.9-45.3	c4.7,2.7,9.7,5,14.9,6.8C332,375.5,294,396.9,251,397.5c0.5-3.6,0.8-7.3,0.8-11C251.8,384.8,251.7,383.1,251.6,381.5z M82.6,266.5	c0-28.2,7.1-54.8,19.5-78.2c4.8,7.9,11,15,18.2,20.8c-7.8,17.5-12.2,36.9-12.2,57.4s4.4,39.8,12.2,57.4	c-7.2,5.8-13.3,12.9-18.2,20.8C89.6,321.3,82.6,294.7,82.6,266.5L82.6,266.5z M249.1,433c-4,0-7.9-0.1-11.8-0.4	c5.2-7.5,9.2-16,11.7-25.1c0,0,0.1,0,0.1,0c48.4,0,91.2-24.5,116.6-61.8c5,1,10.1,1.5,15.4,1.5c4.9,0,9.7-0.5,14.4-1.3	C367.2,397.8,312.2,433,249.1,433z" class="st1"/><path d="M249.1,386.5c-77.8,0-141-63.3-141-141s63.3-141,141-141s141,63.3,141,141C390.1,323.3,326.9,386.5,249.1,386.5	L249.1,386.5z M249.1,114.5c-72.3,0-131,58.8-131,131c0,72.3,58.8,131,131,131s131-58.8,131-131	C380.1,173.2,321.3,114.5,249.1,114.5L249.1,114.5z" class="st2"/><path d="M249.1,360.5c-63.4,0-115-51.6-115-115s51.6-115,115-115s115,51.6,115,115S312.5,360.5,249.1,360.5L249.1,360.5	z M249.1,140.5c-57.9,0-105,47.1-105,105s47.1,105,105,105s105-47.1,105-105S307,140.5,249.1,140.5L249.1,140.5z" class="st3"/><circle cx="381.1" cy="245.5" r="80.7" class="st2"/><circle cx="381.1" cy="245.5" r="59.5" class="st4"/><circle cx="171.1" cy="365.5" r="80.7" class="st5"/><circle cx="171.1" cy="365.5" r="59.5" class="st4"/><circle cx="171.1" cy="125.5" r="80.7" class="st6"/><path d="M466.8,245.5c0-16.3-4.6-32.2-13.4-46c-1.5-2.3-4.6-3-6.9-1.5c-2.3,1.5-3,4.6-1.5,6.9	c7.7,12.1,11.8,26.2,11.8,40.6c0,41.7-34,75.7-75.7,75.7s-75.7-34-75.7-75.7s34-75.7,75.7-75.7c14.8,0,29.1,4.3,41.5,12.4	c2.3,1.5,5.4,0.9,6.9-1.4c1.5-2.3,0.9-5.4-1.4-6.9c-7.1-4.6-14.7-8.2-22.8-10.5c-29.6-56-88.5-94.3-156.2-94.3	c-4.5,0-8.9,0.2-13.2,0.5c-15.7-18.2-38.9-29.7-64.8-29.7c-47.3,0-85.7,38.4-85.7,85.7c0,13.1,2.9,25.4,8.2,36.5	c-13.4,24.9-21,53.3-21,83.5c0,30.2,7.6,58.6,21,83.5c-5.2,11.1-8.2,23.5-8.2,36.5c0,47.3,38.4,85.7,85.7,85.7	c25.8,0,49-11.5,64.8-29.7c4.4,0.3,8.8,0.5,13.2,0.5c67.7,0,126.6-38.3,156.2-94.3C440.8,317.2,466.8,284.4,466.8,245.5L466.8,245.5	z M171.1,441.2c-41.7,0-75.7-34-75.7-75.7s34-75.7,75.7-75.7s75.7,34,75.7,75.7S212.8,441.2,171.1,441.2z M249.1,412c-2,0-4,0-6-0.1	c8.7-13.4,13.7-29.3,13.7-46.4c0-47.3-38.4-85.7-85.7-85.7c-29.9,0-56.3,15.4-71.6,38.7c-10.8-22.1-16.9-46.9-16.9-73	c0-26.2,6.1-51,16.9-73c15.3,23.3,41.7,38.7,71.6,38.7c16.9,0,33.3-5,47.4-14.3c2.3-1.5,2.9-4.6,1.4-6.9c-1.5-2.3-4.6-2.9-6.9-1.4	c-12.4,8.3-26.9,12.6-41.9,12.6c-41.7,0-75.7-34-75.7-75.7s34-75.7,75.7-75.7s75.7,34,75.7,75.7c0,14.2-4,28.1-11.6,40.2	c-1.5,2.3-0.8,5.4,1.6,6.9c2.3,1.5,5.4,0.8,6.9-1.6c8.6-13.6,13.1-29.4,13.1-45.5c0-17.1-5.1-33-13.7-46.4c2-0.1,4-0.1,6-0.1	c60.8,0,114.1,32.8,143.2,81.6c-3.7-0.5-7.4-0.7-11.2-0.7c-47.3,0-85.7,38.4-85.7,85.7s38.4,85.7,85.7,85.7c3.8,0,7.5-0.3,11.2-0.8	C363.2,379.3,309.9,412,249.1,412L249.1,412z" class="st7"/><circle cx="171.1" cy="125.5" r="59.5" class="st4"/><path d="M50.2,336.2c-1.3,0-2.6-0.5-3.5-1.5c-2-2-2-5.1,0-7.1l10-10c2-2,5.1-2,7.1,0c2,2,2,5.1,0,7.1l-10,10	C52.8,335.7,51.5,336.2,50.2,336.2z" class="st8"/><path d="M262.2,49.3c-1.3,0-2.6-0.5-3.5-1.5c-2-2-2-5.1,0-7.1l10-10c2-2,5.1-2,7.1,0c2,2,2,5.1,0,7.1l-10,10	C264.7,48.9,263.4,49.3,262.2,49.3z" class="st8"/><path d="M413,388.2c-1.3,0-2.6-0.5-3.5-1.5c-2-2-2-5.1,0-7.1l10-10c2-2,5.1-2,7.1,0c2,2,2,5.1,0,7.1l-10,10	C415.6,387.7,414.3,388.2,413,388.2z" class="st8"/><path d="M263.1,482.6c-1.3,0-2.6-0.5-3.5-1.5l-6.5-6.5l-6.5,6.5c-2,2-5.1,2-7.1,0c-2-2-2-5.1,0-7.1l10-10	c2-2,5.1-2,7.1,0l10,10c2,2,2,5.1,0,7.1C265.6,482.2,264.4,482.6,263.1,482.6L263.1,482.6z" class="st2"/><path d="M276.9,230.1c-1.3,0-2.6-0.5-3.5-1.5l-6.5-6.5l-6.5,6.5c-2,2-5.1,2-7.1,0c-2-2-2-5.1,0-7.1l10-10	c2-2,5.1-2,7.1,0l10,10c2,2,2,5.1,0,7.1C279.5,229.6,278.2,230.1,276.9,230.1z" class="st5"/><path d="M408.6,228.7h-14.7v-4.5c0-2.8-2.2-5-5-5s-5,2.2-5,5v4.5h-14.7c-2.8,0-5,2.2-5,5s2.2,5,5,5h24.6	c-0.8,3-2.4,7.1-5.4,11.1l-3.2-2.4c-2.2-1.7-5.3-1.2-7,1c-1.7,2.2-1.2,5.3,1,7l2.1,1.6c-2.9,2.2-6.5,4.2-10.9,5.8	c-2.6,1-3.9,3.8-3,6.4c0.7,2,2.7,3.3,4.7,3.3c0.6,0,1.2-0.1,1.7-0.3c6.5-2.4,11.7-5.5,15.7-9l10.9,8.3c0.9,0.7,2,1,3,1	c1.5,0,3-0.7,4-2c1.7-2.2,1.2-5.3-1-7l-10.1-7.6c4.8-6.4,6.8-12.9,7.6-17.2h4.7c2.8,0,5-2.2,5-5S411.4,228.7,408.6,228.7	L408.6,228.7z" class="st5"/><path d="M152.7,151.9c-0.7,0-1.3-0.1-2-0.4c-2.5-1.1-3.7-4-2.6-6.6l18.4-42.8c0.8-1.8,2.6-3,4.6-3s3.8,1.2,4.6,3 l18.4,42.8c1.1,2.5-0.1,5.5-2.6,6.6c-2.5,1.1-5.5-0.1-6.6-2.6l-13.8-32.1l-13.8,32.1C156.4,150.8,154.6,151.9,152.7,151.9 L152.7,151.9z" class="st9"/><path d="M183.6,138.2h-20.9c-2.8,0-5-2.2-5-5s2.2-5,5-5h20.9c2.8,0,5,2.2,5,5S186.4,138.2,183.6,138.2z" class="st9"/><g><path d="M153.7,393.9c-0.7,0-1.3-0.1-2-0.4c-2.5-1.1-3.7-4-2.6-6.6l18.4-42.8c0.8-1.8,2.6-3,4.6-3s3.8,1.2,4.6,3 l18.4,42.8c1.1,2.5-0.1,5.5-2.6,6.6c-2.5,1.1-5.5-0.1-6.6-2.6l-13.8-32.1l-13.8,32.1C157.4,392.8,155.6,393.9,153.7,393.9 L153.7,393.9z" class="st10"/><path d="M180.4,380.3h-20.9c-2.8,0-5-2.2-5-5s2.2-5,5-5h20.9c2.8,0,5,2.2,5,5S183.2,380.3,180.4,380.3z" class="st10"/></g></svg>