<svg xmlns="http://www.w3.org/2000/svg" width="512" height="512" viewBox="0 0 512 512"><linearGradient id="a" x1="514.782" x2="-122.413" y1="-43.218" y2="593.978" gradientUnits="userSpaceOnUse"><stop offset=".002" stop-color="#ffc599"/><stop offset=".992" stop-color="#ffe8dc" stop-opacity="0"/></linearGradient><path fill="url(#a)" d="m428.41 171.888c-8.356-8.356-18.026-14.923-28.717-19.765-28.021-12.69-50.051-35.407-62.434-63.565-22.917-52.113-74.975-88.512-135.546-88.558-79.311-.06-145.162 63.163-148.147 142.418-1.277 33.922 8.857 65.421 26.87 90.969 22.877 32.448 28.821 73.782 17.021 111.69-16.764 53.857-10.919 104.898 20.973 136.791 55.888 55.888 170.586 31.804 256.185-53.795 85.598-85.599 109.683-200.296 53.795-256.185z"/><circle cx="106.963" cy="108.227" r="34.972" fill="#00c" opacity=".1"/><g fill="#00c" opacity=".1"><path d="m426.563 203.86-81.504-28.128c-3.097-1.069-6.475.575-7.543 3.673l-43.898 127.2h-160.276c-5.523 0-10 4.477-10 10v43.331c0 5.523 4.477 10 10 10h7.298l8.362 36.137-24.754 24.754c-6.087 6.087-6.087 15.956 0 22.042 6.087 6.087 15.956 6.087 22.042 0l10.995-10.995 11.604 50.148c1.05 4.53 5.09 7.74 9.75 7.74h184.92c4.66 0 8.7-3.21 9.75-7.74l11.604-50.148 10.995 10.995c6.087 6.087 15.956 6.087 22.042 0 6.087-6.087 6.087-15.956 0-22.042l-24.754-24.754 8.362-36.137h7.298c5.523 0 10-4.477 10-10v-43.331c0-5.523-4.477-10-10-10h-11.476l32.855-95.202c1.069-3.096-.575-6.474-3.672-7.543zm-91.633 102.745 22.306-64.635c1.8-5.216 7.488-7.985 12.703-6.185 5.216 1.8 7.985 7.488 6.185 12.703l-20.057 58.117z"/><path d="m143.649 195.822 10.339-20.462 30.673 93.33c.792 2.409 3.386 3.72 5.795 2.928l102.233-33.599c2.409-.792 3.72-3.386 2.928-5.795l-30.673-93.33 20.462 10.339c2.263 1.144 5.025.236 6.169-2.027l14.492-28.682 35.657 16.215c1.863.847 4.059.024 4.906-1.839l18.856-41.465 3.326 8.873c.718 1.916 2.853 2.887 4.769 2.169l15.097-5.658c1.916-.718 2.887-2.853 2.169-4.769l-11.046-29.47c-.345-.92-1.041-1.665-1.936-2.072l-9.236-4.2c-1.095-.498-2.379-.315-3.291.469-4.252 3.657-10.406 4.737-15.848 2.263-5.442-2.475-8.673-7.823-8.711-13.431-.008-1.203-.714-2.291-1.809-2.789l-9.465-4.304c-.747-.34-1.599-.369-2.368-.081l-30.277 11.348c-1.601.6-2.413 2.385-1.813 3.986l6.085 16.236c.6 1.601 2.385 2.413 3.986 1.813l9.443-3.539-15.03 33.05-54.581-27.58c-1.087-.549-2.347-.644-3.504-.264l-22.509 7.398c-1.725.567-2.987 2.094-3.133 3.903-.973 12.069-9.016 22.966-21.244 26.984-12.229 4.019-25.167.018-33.11-9.121-1.191-1.37-3.113-1.851-4.838-1.284l-22.509 7.398c-1.157.38-2.115 1.204-2.664 2.291l-31.637 62.612c-1.144 2.263-.236 5.025 2.027 6.168l35.652 18.015c2.263 1.144 5.024.237 6.168-2.027z"/></g><path fill="#ff4d4d" d="m388.678 75.82-15.097 5.658c-1.916.718-4.051-.253-4.769-2.169l-3.326-8.873-18.856 41.465c-.847 1.863-3.044 2.686-4.906 1.839l-44.735-20.343c-1.557-.708-2.245-2.544-1.537-4.1l19.108-42.019-9.443 3.539c-1.601.6-3.386-.211-3.986-1.813l-6.085-16.236c-.6-1.601.211-3.386 1.813-3.986l30.277-11.348c.769-.288 1.621-.259 2.368.081l9.465 4.304c1.095.498 1.801 1.586 1.809 2.789.039 5.608 3.269 10.956 8.711 13.431s11.596 1.394 15.848-2.263c.912-.785 2.196-.968 3.291-.469l9.236 4.2c.894.407 1.591 1.152 1.936 2.072l11.046 29.471c.719 1.916-.252 4.052-2.168 4.77z"/><path fill="#9494ff" d="m337.515 158.405-50.322 145.813c-1.069 3.097.575 6.475 3.673 7.543l25.7 8.869c3.097 1.069 6.475-.575 7.544-3.673l33.127-95.988c1.8-5.216 7.488-7.985 12.703-6.185 5.216 1.8 7.985 7.488 6.185 12.703l-33.127 95.988c-1.069 3.097.575 6.475 3.673 7.543l25.7 8.869c3.097 1.069 6.475-.575 7.543-3.673l50.322-145.813c1.069-3.097-.575-6.475-3.673-7.543l-81.504-28.128c-3.097-1.067-6.475.578-7.544 3.675z"/><path fill="#8383ff" d="m380.846 167.08c-6.33 8.99-16.79 14.87-28.62 14.87-7.68 0-14.78-2.47-20.54-6.66l5.83-16.88c1.07-3.1 4.45-4.75 7.54-3.68z"/><path fill="#d9d9ff" d="m430.236 190.4-3.55 10.29-61.5-21.22-31.22-10.78 3.55-10.28c1.07-3.1 4.45-4.75 7.54-3.68l35.79 12.35 45.72 15.78c3.09 1.07 4.74 4.45 3.67 7.54z"/><path fill="#b3b3ff" d="m380.846 167.08c-3.88 5.51-9.31 9.85-15.66 12.39l-31.22-10.78 3.55-10.28c1.07-3.1 4.45-4.75 7.54-3.68z"/><path fill="#d9d9ff" d="m291.064 293.001-3.871 11.216c-1.069 3.097.575 6.475 3.673 7.543l25.7 8.869c3.097 1.069 6.475-.575 7.544-3.673l3.871-11.216z"/><path fill="#d9d9ff" d="m346.869 312.26-3.871 11.216c-1.069 3.097.575 6.475 3.673 7.543l25.7 8.869c3.097 1.069 6.475-.575 7.543-3.673l3.871-11.215z"/><path fill="#6c6cff" d="m404.465 193.019c-3.047 9.624-.899 20.144 5.747 27.79l6.818 7.851 9.654-27.973z"/><path fill="#6c6cff" d="m356.186 176.36c-.74 1.97-1.68 3.84-2.8 5.57-4.23 6.57-11 11.24-18.87 12.76l-10.2 1.97 7.37-21.37 2.28-6.6z"/><path fill="#4d4dff" d="m356.186 176.36c-.74 1.97-1.68 3.84-2.8 5.57-.38.01-.77.02-1.16.02-7.68 0-14.78-2.47-20.54-6.66l2.28-6.6z"/><path fill="#9494ff" d="m362.016 180.372-5.328-1.839c-.619-.214-.948-.889-.735-1.509l5.715-16.56 7.571 2.613-5.715 16.56c-.213.62-.888.949-1.508.735z"/><path fill="#b3b3ff" d="m402.725 194.421-5.328-1.839c-.619-.214-.948-.889-.735-1.509l5.715-16.56 7.571 2.613-5.715 16.56c-.213.62-.888.949-1.508.735z"/><path fill="#ff9d33" d="m285.406 128.23-20.46-10.33 30.67 93.33c.79 2.4-.52 5-2.93 5.79l-102.23 33.6c-2.41.79-5-.52-5.8-2.93l-30.67-93.33-10.34 20.46c-1.14 2.27-3.9 3.17-6.17 2.03l-35.65-18.02c-2.26-1.14-3.17-3.9-2.03-6.16l9.5-18.81 22.14-43.81c.55-1.08 1.51-1.91 2.67-2.29l5.34-1.75 17.17-5.64c1.72-.57 3.64-.09 4.83 1.28 7.95 9.14 20.88 13.14 33.11 9.12s20.27-14.92 21.25-26.98c.14-1.81 1.41-3.34 3.13-3.91l22.51-7.4c1.16-.38 2.42-.28 3.5.27l62.62 31.64c2.26 1.14 3.17 3.9 2.02 6.16l-18.01 35.66c-1.15 2.26-3.91 3.17-6.17 2.02z"/><path fill="#ff8b00" d="m141.936 98.97c0 18.54-14.42 33.69-32.64 34.89l22.14-43.81c.55-1.08 1.51-1.91 2.67-2.29l5.34-1.75c1.61 4.01 2.49 8.38 2.49 12.96z"/><path fill="#fff" d="m191.735 158.024c-4.961 0-9.59-3.155-11.222-8.118l-5.138-15.635c-.984-2.994-.744-6.193.678-9.007 1.421-2.814 3.854-4.906 6.849-5.89l5.065-1.665c6.181-2.032 12.866 1.345 14.897 7.528l5.138 15.634c2.032 6.183-1.345 12.866-7.527 14.897l-5.065 1.665c-1.218.401-2.457.591-3.675.591zm-.083-30.906c-.173 0-.362.025-.562.091l-5.065 1.665c-.617.203-.92.651-1.046.9s-.307.758-.104 1.375l5.138 15.635c.31.945 1.334 1.459 2.275 1.15l5.065-1.665c.944-.311 1.459-1.331 1.149-2.275l-5.138-15.634c-.203-.617-.651-.92-.899-1.046-.167-.085-.454-.196-.813-.196z"/><path fill="#fff" d="m220.982 148.303c-1.524 0-2.999-.698-3.964-1.951-1.294-1.682-1.385-3.997-.229-5.776 3.526-5.422 8.628-14.89 8.932-18.964.117-1.566-.473-3.057-1.539-3.891-.83-.649-1.794-.797-2.869-.445-1.803.593-2.788 2.542-2.195 4.345.862 2.624-.566 5.449-3.189 6.311-2.624.862-5.45-.565-6.311-3.189-2.314-7.041 1.532-14.653 8.573-16.967 4.256-1.397 8.684-.644 12.153 2.068 3.717 2.907 5.717 7.584 5.35 12.51-.264 3.533-1.994 8.02-3.996 12.163l4.925-1.619c2.621-.862 5.448.565 6.311 3.189.862 2.624-.565 5.449-3.189 6.311l-17.203 5.654c-.513.17-1.04.251-1.56.251z"/><path fill="#ff4d4d" d="m403.381 341.073-30.07 129.95c-1.05 4.53-5.09 7.74-9.75 7.74h-184.92c-4.66 0-8.7-3.21-9.75-7.74l-30.07-129.95z"/><path fill="#ff2c2c" d="m403.381 341.073h-264.56l5.06 21.86h49.31l-40.05 40.05 7.87 33.97 74.02-74.02h72.14l74.02 74.02 7.87-33.97-40.05-40.05h49.31z"/><path fill="#ff6c6c" d="m408.859 348.936h-275.517c-5.523 0-10-4.477-10-10v-43.331c0-5.523 4.477-10 10-10h275.518c5.523 0 10 4.477 10 10v43.331c-.001 5.523-4.478 10-10.001 10z"/><path fill="#fff" d="m202.261 384.416v51c0 2.77-2.24 5-5 5s-5-2.23-5-5v-51c0-2.76 2.24-5 5-5s5 2.24 5 5z"/><path fill="#ffd9d9" d="m202.261 384.416v11.29l-10 10v-21.29c0-2.76 2.24-5 5-5s5 2.24 5 5z"/><g fill="#fff"><path d="m234.182 379.42c2.761 0 5 2.238 5 5v51c0 2.762-2.239 5-5 5s-5-2.238-5-5v-51c0-2.762 2.239-5 5-5"/><path d="m271.101 379.42c2.761 0 5 2.238 5 5v51c0 2.762-2.239 5-5 5s-5-2.238-5-5v-51c0-2.762 2.238-5 5-5"/><path d="m308.019 379.42c2.761 0 5 2.238 5 5v51c0 2.762-2.239 5-5 5s-5-2.238-5-5v-51c0-2.762 2.239-5 5-5"/><path d="m349.941 384.416v51c0 2.77-2.24 5-5 5s-5-2.23-5-5v-51c0-2.76 2.24-5 5-5s5 2.24 5 5z"/></g><path fill="#ffd9d9" d="m349.941 384.416v21.29l-10-10v-11.29c0-2.76 2.24-5 5-5s5 2.24 5 5z"/><path fill="#ffab66" d="m417.953 431.869c-6.087 6.087-15.956 6.087-22.042 0l-101.02-101.019c-6.087-6.087-6.087-15.956 0-22.042 6.087-6.087 15.956-6.087 22.042 0l101.019 101.019c6.087 6.087 6.087 15.956.001 22.042z"/><path fill="#ffab66" d="m247.31 308.808c-6.087-6.087-15.956-6.087-22.042 0l-101.019 101.019c-6.087 6.087-6.087 15.956 0 22.042 6.087 6.087 15.956 6.087 22.042 0l101.019-101.019c6.087-6.087 6.087-15.955 0-22.042z"/><circle cx="106.963" cy="87.227" r="34.972" fill="#ff4d4d"/><path fill="#fff" d="m106.963 103.972c-2.761 0-5-2.239-5-5v-23.49c0-2.761 2.239-5 5-5s5 2.239 5 5v23.489c0 2.762-2.239 5.001-5 5.001z"/><path fill="#fff" d="m118.708 92.227h-23.49c-2.761 0-5-2.239-5-5s2.239-5 5-5h23.489c2.761 0 5 2.239 5 5s-2.238 5-4.999 5z"/><circle cx="352.222" cy="134.571" r="34.972" fill="#ff9d33"/><path fill="#00c" d="m403.686 252.007c-.901 2.61.485 5.457 3.095 6.358 2.611.899 5.457-.485 6.358-3.095l21.822-63.234c.953-2.761.774-5.727-.504-8.353-1.278-2.625-3.502-4.596-6.263-5.549l-46.89-16.182c6.744-7.159 10.89-16.792 10.89-27.38 0-19.495-14.032-35.765-32.525-39.265l5.549-12.202c.875 1.217 2.057 2.191 3.459 2.829 2.118.963 4.482 1.043 6.659.228l15.097-5.658c4.495-1.685 6.781-6.712 5.096-11.206l-11.046-29.473c-.816-2.176-2.431-3.904-4.547-4.867l-9.236-4.199c-2.858-1.301-6.243-.816-8.621 1.229-2.905 2.498-7.033 3.086-10.518 1.502-3.485-1.585-5.754-5.084-5.781-8.915-.022-3.138-1.882-6.006-4.74-7.305l-9.466-4.305c-1.97-.895-4.17-.969-6.193-.211l-30.277 11.346c-2.025.759-3.633 2.261-4.528 4.23s-.97 4.168-.211 6.193l6.085 16.236c.759 2.025 2.261 3.634 4.229 4.529 1.415.643 2.946.861 4.448.655l-7.992 17.573-49.932-25.23c-2.286-1.155-4.887-1.351-7.319-.551l-22.51 7.397c-3.675 1.208-6.248 4.447-6.555 8.251-.844 10.471-7.839 19.356-17.821 22.636s-20.885.276-27.775-7.651c-2.504-2.881-6.499-3.962-10.172-2.753l-9.066 2.979c-3.958-17.903-19.946-31.339-39.022-31.339-22.041 0-39.972 17.931-39.972 39.972s17.931 39.972 39.972 39.972c.035 0 .07-.003.106-.003l-11.731 23.216c-2.385 4.72-.485 10.501 4.235 12.886l35.652 18.015c4.723 2.386 10.501.485 12.886-4.235l4.895-9.688 26.904 81.862c1.325 4.033 5.087 6.598 9.119 6.597.99 0 1.997-.154 2.987-.48l102.233-33.599c5.024-1.651 7.768-7.082 6.117-12.106l-26.904-81.862 9.688 4.896c4.723 2.385 10.501.485 12.886-4.235l12.329-24.399 12.546 5.705c-5.415 6.821-8.661 15.437-8.661 24.803 0 13.467 6.701 25.391 16.937 32.636l-39.135 113.398h-156.71c-8.271 0-15 6.729-15 15v43.331c0 8.271 6.729 15 15 15h3.326l6.841 29.56-22.795 22.795c-8.026 8.027-8.026 21.087 0 29.114 4.013 4.013 9.285 6.02 14.556 6.02 5.272 0 10.543-2.007 14.557-6.02l4.624-4.624 9.573 41.366c1.583 6.841 7.592 11.619 14.613 11.619h184.927c7.021 0 13.03-4.777 14.614-11.618l9.573-41.367 4.624 4.624c4.013 4.013 9.285 6.02 14.556 6.02 5.272 0 10.543-2.006 14.557-6.02 8.026-8.027 8.026-21.087 0-29.114l-22.795-22.795 6.841-29.56h3.326c8.271 0 15-6.729 15-15v-43.331c0-8.271-6.729-15-15-15h-45.777l17.768-51.486c1.306-3.785 1.06-7.852-.693-11.452s-4.803-6.302-8.587-7.608c-3.786-1.307-7.853-1.061-11.453.692-3.6 1.752-6.302 4.803-7.608 8.587l-21.144 61.267h-30.734l37.492-108.638c4.387 1.66 9.137 2.575 14.099 2.575 7.177 0 13.912-1.911 19.74-5.236l52.969 18.28c.302.104.458.315.535.473s.147.411.042.712zm-256.755 101.93h26.136l-21.225 21.225zm-4.175 74.397c-4.128 4.127-10.844 4.128-14.972 0-4.128-4.127-4.128-10.844 0-14.971l101.02-101.02c2.063-2.064 4.774-3.096 7.486-3.096 2.711 0 5.422 1.032 7.485 3.096 4.128 4.127 4.128 10.844 0 14.971zm271.661 0c-4.127 4.127-10.843 4.128-14.971 0l-101.02-101.019c-4.127-4.128-4.127-10.844 0-14.972 2-1.999 4.658-3.1 7.485-3.1s5.486 1.101 7.485 3.101l101.02 101.02c4.129 4.126 4.129 10.843.001 14.97zm-24.059-53.173-21.225-21.225h26.136zm23.501-79.556v43.331c0 2.757-2.243 5-5 5h-49.726l-38.665-38.665c-8.027-8.026-21.087-8.026-29.114 0-8.026 8.026-8.026 21.086 0 29.113l9.551 9.551h-38.711c-2.761 0-5 2.239-5 5s2.239 5 5 5h48.711l68.51 68.509-10.98 47.447c-.528 2.281-2.531 3.874-4.872 3.874h-184.926c-2.34 0-4.343-1.593-4.871-3.873l-10.98-47.447 88.06-88.06c8.026-8.027 8.026-21.087 0-29.114-8.026-8.026-21.086-8.026-29.114 0l-38.665 38.665h-49.726c-2.757 0-5-2.243-5-5v-43.331c0-2.757 2.243-5 5-5h275.518c2.757 0 5 2.244 5 5zm-51.896-73.004c.435-1.26 1.334-2.275 2.533-2.859 1.198-.583 2.553-.665 3.813-.23s2.275 1.334 2.859 2.533c.583 1.199.666 2.553.23 3.813l-18.894 54.749h-10.559zm-284.972-135.374c0-16.526 13.445-29.972 29.972-29.972s29.972 13.445 29.972 29.972-13.445 29.972-29.972 29.972-29.972-13.446-29.972-29.972zm210.305 36.36-20.097-10.155c-1.805-.913-3.982-.647-5.515.671s-2.121 3.431-1.49 5.352l30.545 92.942-101.457 33.344-30.544-92.941c-.631-1.921-2.358-3.273-4.375-3.425-.126-.01-.252-.014-.377-.014-1.875 0-3.606 1.053-4.461 2.745l-10.154 20.097-34.923-17.646 14.805-29.299c15.561-5.041 26.968-19.379 27.642-36.435l11.019-3.621c9.552 10.771 24.509 14.823 38.207 10.319 13.701-4.502 23.337-16.636 24.636-30.973l22.089-7.26 62.096 31.377zm27.307-38.098c-.8-2.434-2.5-4.41-4.786-5.566l-3.748-1.894 13.043-28.681c.837-1.841.483-4.005-.897-5.483s-3.514-1.976-5.409-1.269l-7.66 2.871-4.749-12.671 27.755-10.403 7.675 3.49c.505 7.219 4.953 13.688 11.593 16.708 6.641 3.021 14.439 2.122 20.212-2.244l7.675 3.49 10.403 27.755-12.671 4.749-2.871-7.66c-.71-1.894-2.491-3.173-4.512-3.242-2.017-.068-3.885 1.086-4.722 2.927l-11.996 26.379c-7.541.617-14.495 3.33-20.276 7.563l-15.784-7.177 1.173-2.321c1.157-2.287 1.352-4.887.552-7.321zm7.648 49.082c0-16.526 13.445-29.972 29.972-29.972s29.972 13.445 29.972 29.972-13.445 29.972-29.972 29.972-29.972-13.445-29.972-29.972z"/><path fill="#00c" d="m307.661 316.549c-2.761 0-5 2.239-5 5v.115c0 2.761 2.239 5 5 5s5-2.239 5-5v-.115c0-2.761-2.239-5-5-5z"/><path fill="#00c" d="m234.54 316.549c-2.761 0-5 2.239-5 5v.115c0 2.761 2.239 5 5 5s5-2.239 5-5v-.115c0-2.761-2.239-5-5-5z"/><path fill="#fff" d="m352.223 151.316c-2.761 0-5-2.239-5-5v-23.489c0-2.761 2.239-5 5-5s5 2.239 5 5v23.489c0 2.761-2.239 5-5 5z"/><path fill="#fff" d="m363.967 139.571h-23.489c-2.761 0-5-2.239-5-5s2.239-5 5-5h23.489c2.761 0 5 2.239 5 5s-2.238 5-5 5z"/><path fill="#ff9d33" d="m130.727 231.727c-1.28 0-2.559-.488-3.536-1.464-1.953-1.953-1.953-5.119 0-7.071l10-10c1.953-1.952 5.118-1.952 7.071 0 1.953 1.953 1.953 5.119 0 7.071l-10 10c-.976.975-2.255 1.464-3.535 1.464z"/><path fill="#ff6c6c" d="m430.009 392.413c-1.28 0-2.559-.488-3.536-1.464-1.953-1.953-1.953-5.119 0-7.071l10-10c1.953-1.952 5.118-1.952 7.071 0 1.953 1.953 1.953 5.119 0 7.071l-10 10c-.976.975-2.255 1.464-3.535 1.464z"/><path fill="#6c6cff" d="m258.105 27.237c-1.28 0-2.559-.488-3.536-1.464l-6.464-6.464-6.464 6.464c-1.953 1.952-5.118 1.952-7.071 0-1.953-1.953-1.953-5.119 0-7.071l10-10c1.953-1.952 5.118-1.952 7.071 0l10 10c1.953 1.953 1.953 5.119 0 7.071-.976.976-2.256 1.464-3.536 1.464z"/><path fill="#ff6c6c" d="m435.009 153.199c-1.28 0-2.559-.488-3.536-1.464l-6.464-6.464-6.464 6.464c-1.953 1.952-5.118 1.952-7.071 0-1.953-1.953-1.953-5.119 0-7.071l10-10c1.953-1.952 5.118-1.952 7.071 0l10 10c1.953 1.953 1.953 5.119 0 7.071-.977.975-2.256 1.464-3.536 1.464z"/><path fill="#ff6c6c" d="m104.928 374.051c-1.28 0-2.559-.488-3.536-1.464l-6.464-6.464-5.884 5.884c-1.953 1.952-5.118 1.952-7.071 0-1.953-1.953-1.953-5.119 0-7.071l9.419-9.419c1.953-1.952 5.118-1.952 7.071 0l10 10c1.953 1.953 1.953 5.119 0 7.071-.976.975-2.255 1.463-3.535 1.463z"/></svg>