<svg xmlns="http://www.w3.org/2000/svg" width="512" height="512" viewBox="0 0 512 512"><linearGradient id="a" x1="542.63" x2="208.63" y1="511.144" y2="212.144" gradientUnits="userSpaceOnUse"><stop offset="0" stop-color="#c7d3ff"/><stop offset=".593" stop-color="#e7d8f5"/><stop offset=".997" stop-color="#ffdbed"/></linearGradient><path fill="url(#a)" d="m471.476 116.304c-65.417-50.293-128.867-9.306-199.64-23.797-71.285-14.597-99.685-63.201-180.876-40.766-71.922 19.873-115.562 99.551-76.024 166.258 11.267 19.009 30.461 33.35 38.305 54.619 12.653 34.311-6.607 60.653-2.85 94.372 15.612 140.102 229.574 85.834 308.303 42.245 123.47-68.36 206.998-220.497 112.782-292.931z"/><path fill="#2626bc" d="m392.99 270.013h-24.04c-3.34-14.02-8.88-27.2-16.22-39.13l17-17.01c3.82-3.82 3.82-10.01 0-13.82l-30.46-30.46c-3.81-3.82-10-3.82-13.82 0l-17.01 17c-11.93-7.34-25.11-12.88-39.13-16.22v-24.04c0-5.4-4.37-9.77-9.77-9.77h-4.456c-.282-31.892-23.48-58.324-53.942-63.583-4.095-.707-7.231 3.584-5.294 7.261l19.956 37.898c2.573 4.886.698 10.933-4.188 13.507l-40.076 21.11c-4.886 2.574-10.934.699-13.508-4.187l-19.255-36.552c-1.986-3.771-7.453-3.478-9.069.466-3.118 7.61-4.836 15.936-4.836 24.663 0 12.654 3.611 24.459 9.856 34.448l-28.458 28.458c-3.82 3.81-3.82 10 0 13.82l17 17.01c-7.34 11.93-12.88 25.11-16.22 39.13h-24.04c-5.4 0-9.77 4.37-9.77 9.77v43.08c0 5.4 4.37 9.77 9.77 9.77h24.04c3.34 14.02 8.88 27.2 16.22 39.13l-17 17.01c-3.82 3.82-3.82 10.01 0 13.82l30.46 30.46c3.81 3.82 10 3.82 13.82 0l17.01-17c11.93 7.34 25.11 12.88 39.13 16.22v24.04c0 5.4 4.37 9.77 9.77 9.77h43.08c5.4 0 9.77-4.37 9.77-9.77v-24.04c14.02-3.34 27.2-8.88 39.13-16.22l17.01 17c3.82 3.82 10.01 3.82 13.82 0l30.46-30.46c3.82-3.81 3.82-10 0-13.82l-17-17.01c7.34-11.93 12.88-25.11 16.22-39.13h24.04c5.4 0 9.77-4.37 9.77-9.77v-43.08c0-5.399-4.37-9.769-9.77-9.769zm-253.41 31.31c0-24.715 9.115-47.303 24.164-64.589v129.179c-15.049-17.287-24.164-39.875-24.164-64.59zm76.65 95.998v-191.848c0-.05.005-.1.005-.15 7.002-1.581 14.285-2.42 21.765-2.42 9.916 0 19.487 1.473 28.513 4.202-1.276 2.965-1.947 6.163-1.947 9.404v108.853h-5.958c-5.754 0-10.418 4.664-10.418 10.418 0 5.365 4.057 9.78 9.271 10.352-6.503 12.543-11.109 31.509-12.461 53.36-2.313.163-4.646.251-7 .251-7.481 0-14.766-.84-21.77-2.422zm87.56-22.808c-2.238-11.234-5.429-20.936-9.288-28.38 5.216-.569 9.276-4.985 9.276-10.353 0-5.754-4.664-10.418-10.418-10.418h-5.958v-108.853c0-.108-.009-.216-.01-.324 29.314 17.045 49.027 48.791 49.027 85.139.001 29.056-12.599 55.172-32.629 73.189z" opacity=".11"/><circle cx="256" cy="283.323" r="98.416" fill="#2626bc" opacity=".11"/><path fill="#97ffd2" d="m410.99 252.013h-24.04c-3.34-14.02-8.88-27.2-16.22-39.13l17-17.01c3.82-3.82 3.82-10.01 0-13.82l-30.46-30.46c-3.81-3.82-10-3.82-13.82 0l-17.01 17c-11.93-7.34-25.11-12.88-39.13-16.22v-24.04c0-5.4-4.37-9.77-9.77-9.77h-43.08c-5.4 0-9.77 4.37-9.77 9.77v24.04c-14.02 3.34-27.2 8.88-39.13 16.22l-17.01-17c-3.82-3.82-10.01-3.82-13.82 0l-30.46 30.46c-3.82 3.81-3.82 10 0 13.82l17 17.01c-7.34 11.93-12.88 25.11-16.22 39.13h-24.04c-5.4 0-9.77 4.37-9.77 9.77v43.08c0 5.4 4.37 9.77 9.77 9.77h24.04c3.34 14.02 8.88 27.2 16.22 39.13l-17 17.01c-3.82 3.82-3.82 10.01 0 13.82l30.46 30.46c3.81 3.82 10 3.82 13.82 0l17.01-17c11.93 7.34 25.11 12.88 39.13 16.22v24.04c0 5.4 4.37 9.77 9.77 9.77h43.08c5.4 0 9.77-4.37 9.77-9.77v-24.04c14.02-3.34 27.2-8.88 39.13-16.22l17.01 17c3.82 3.82 10.01 3.82 13.82 0l30.46-30.46c3.82-3.81 3.82-10 0-13.82l-17-17.01c7.34-11.93 12.88-25.11 16.22-39.13h24.04c5.4 0 9.77-4.37 9.77-9.77v-43.08c0-5.4-4.37-9.77-9.77-9.77zm-154.99 129.73c-54.35 0-98.42-44.07-98.42-98.42s44.07-98.42 98.42-98.42 98.42 44.07 98.42 98.42-44.07 98.42-98.42 98.42z"/><path fill="#02ffb3" d="m270.39 118.563h-35.93c-5.4 0-9.77 4.37-9.77 9.77v24.04c-14.02 3.34-27.2 8.88-39.13 16.22l-17.01-17c-3.82-3.82-10.01-3.82-13.82 0l-7.93 7.93c5.14 14.1 15.02 25.91 27.71 33.53 4.44 2.67 7.23 7.39 7.23 12.57v13.11c17.24-19.8 42.26-32.64 70.3-33.74 12.6-11.61 20.66-28.1 21.05-46.38.15-6.98-.81-13.72-2.7-20.05z"/><path fill="#ffa8cf" d="m321.79 356.513c-5.03 4.52-10.52 8.53-16.39 11.95-7.09 4.12-14.75 7.39-22.83 9.64-6.29 1.77-12.84 2.92-19.57 3.39 2.43-39.3 15.38-69.3 30.98-69.3 12.08 0 22.56 17.97 27.81 44.32z"/><path fill="#ff7eb8" d="m317.25 339.413c-1.87.52-3.85.79-5.89.79h-34.75c-2.04 0-4.03-.28-5.91-.8 5.75-16.71 14.05-27.21 23.28-27.21s17.53 10.5 23.27 27.22z"/><path fill="#ffdbed" d="m282.57 351.823v26.28c8.08-2.25 15.74-5.52 22.83-9.64v-16.64c0-2.761-2.239-5-5-5h-12.83c-2.761 0-5 2.238-5 5z"/><path fill="#d2deff" d="m181.745 187.566v160.344c13.488 15.494 31.745 26.724 52.485 31.407v-191.844c0-5.173 2.788-9.888 7.215-12.564 18.535-11.205 31.156-31.37 31.642-54.351.694-32.781-22.85-60.209-53.946-65.578-4.095-.707-7.231 3.584-5.294 7.261l19.956 37.898c2.573 4.886.698 10.933-4.188 13.507l-40.076 21.11c-4.886 2.574-10.934.699-13.508-4.187l-19.255-36.552c-1.986-3.771-7.454-3.478-9.069.466-3.118 7.61-4.836 15.936-4.836 24.663 0 23.725 12.689 44.469 31.643 55.849 4.441 2.666 7.231 7.392 7.231 12.571z"/><path fill="#d2deff" d="m305.403 319.441h-22.837v-120.932c0-3.867.942-7.675 2.745-11.095l5.549-10.529c1.325-2.513 4.923-2.513 6.248 0l5.549 10.529c1.803 3.42 2.745 7.229 2.745 11.095v120.932z"/><path fill="#97ffd2" d="m311.361 328.198h-34.752c-5.754 0-10.418-4.664-10.418-10.418 0-5.754 4.664-10.418 10.418-10.418h34.752c5.754 0 10.418 4.664 10.418 10.418 0 5.754-4.664 10.418-10.418 10.418z"/><path fill="#ff7eb8" d="m204.335 332.807v-106.49c0-2.761 2.238-4.998 4.998-4.998s4.998 2.237 4.998 4.998v106.49c0 2.761-2.238 4.998-4.998 4.998s-4.998-2.238-4.998-4.998z"/><path fill="#ff7eb8" d="m298.464 101.328c-3.739 0-7.479-1.424-10.325-4.271-5.694-5.693-5.694-14.957 0-20.65 5.693-5.693 14.957-5.693 20.65 0 5.694 5.693 5.694 14.957 0 20.65-2.847 2.847-6.586 4.271-10.325 4.271zm0-19.196c-1.179 0-2.357.449-3.255 1.346-1.794 1.795-1.794 4.715 0 6.51 1.795 1.793 4.715 1.793 6.51 0 1.794-1.795 1.794-4.715 0-6.51-.898-.897-2.076-1.346-3.255-1.346z"/><g fill="#8399fe"><path d="m79.537 363.211c-3.739 0-7.479-1.423-10.326-4.27-5.694-5.694-5.694-14.958 0-20.651 5.694-5.694 14.959-5.694 20.651 0 5.694 5.693 5.694 14.957 0 20.65-2.845 2.847-6.586 4.271-10.325 4.271zm0-19.196c-1.179 0-2.358.449-3.256 1.347-1.794 1.794-1.794 4.714 0 6.509 1.795 1.793 4.716 1.793 6.511 0 1.794-1.795 1.794-4.715 0-6.51-.897-.897-2.076-1.346-3.255-1.346z"/><path d="m431.937 365.995c-3.739 0-7.479-1.424-10.325-4.271-5.693-5.694-5.693-14.959 0-20.651 5.693-5.693 14.957-5.693 20.65 0 5.693 5.692 5.693 14.957.001 20.651 0 0 0 0-.001 0-2.847 2.847-6.586 4.271-10.325 4.271zm6.79-7.806h.01zm-6.79-11.391c-1.179 0-2.357.449-3.255 1.346-1.794 1.795-1.794 4.716.001 6.511 1.793 1.795 4.713 1.795 6.508 0 1.795-1.796 1.795-4.716.001-6.511-.898-.897-2.077-1.346-3.255-1.346z"/><path d="m336.376 111.949h-3.25v-3.25c0-2.762-2.238-5-5-5s-5 2.238-5 5v3.25h-3.25c-2.762 0-5 2.238-5 5s2.238 5 5 5h3.25v3.25c0 2.762 2.238 5 5 5s5-2.238 5-5v-3.25h3.25c2.762 0 5-2.238 5-5s-2.238-5-5-5z"/></g><path fill="#01eca5" d="m422.939 385.681h-3.25v-3.25c0-2.762-2.238-5-5-5s-5 2.238-5 5v3.25h-3.25c-2.762 0-5 2.238-5 5s2.238 5 5 5h3.25v3.25c0 2.762 2.238 5 5 5s5-2.238 5-5v-3.25h3.25c2.762 0 5-2.238 5-5s-2.238-5-5-5z"/><path fill="#2626bc" d="m410.988 247.011h-20.152c-3.134-11.672-7.771-22.858-13.822-33.348l14.256-14.257c5.761-5.76 5.761-15.132 0-20.892l-5.461-5.461c-1.951-1.953-5.119-1.953-7.07 0-1.953 1.952-1.953 5.118 0 7.07l5.461 5.461c.901.901 1.397 2.101 1.397 3.375 0 1.275-.496 2.475-1.397 3.376l-17.008 17.008c-1.638 1.637-1.937 4.184-.724 6.155 7.19 11.686 12.443 24.359 15.613 37.67.537 2.252 2.549 3.842 4.864 3.842h24.043c2.632 0 4.772 2.141 4.772 4.772v43.079c0 2.632-2.141 4.772-4.772 4.772h-24.043c-2.315 0-4.327 1.59-4.864 3.842-3.17 13.312-8.423 25.985-15.613 37.671-1.213 1.972-.914 4.519.724 6.155l17.007 17.007c1.861 1.861 1.861 4.89.001 6.751l-30.462 30.461c-.901.901-2.1 1.398-3.375 1.398-1.274 0-2.473-.497-3.375-1.398l-17.008-17.007c-1.635-1.637-4.184-1.936-6.155-.724-11.683 7.188-24.357 12.441-37.671 15.613-2.252.537-3.841 2.549-3.841 4.864v24.042c0 2.632-2.142 4.773-4.773 4.773h-43.078c-2.632 0-4.773-2.142-4.773-4.773v-24.042c0-2.315-1.589-4.327-3.841-4.864-13.313-3.172-25.988-8.425-37.671-15.613-1.973-1.213-4.52-.914-6.155.724l-17.009 17.007c-.901.901-2.1 1.398-3.374 1.398-1.275 0-2.474-.497-3.376-1.398l-30.461-30.461c-1.86-1.861-1.86-4.89 0-6.751l17.008-17.007c1.638-1.637 1.937-4.184.724-6.155-7.19-11.686-12.443-24.359-15.613-37.671-.537-2.252-2.549-3.842-4.864-3.842h-24.043c-2.632 0-4.772-2.141-4.772-4.772v-43.079c0-2.632 2.141-4.772 4.772-4.772h24.043c2.315 0 4.327-1.59 4.864-3.842 3.17-13.311 8.423-25.984 15.613-37.67 1.213-1.972.914-4.519-.724-6.155l-17.008-17.008c-.901-.901-1.397-2.101-1.397-3.376 0-1.274.496-2.474 1.397-3.375l24.17-24.17c5.335 7.037 12.06 13.119 19.97 17.868 3.008 1.805 4.803 4.901 4.803 8.283v29.332c-15.578 18.573-24.16 42.142-24.16 66.425 0 57.023 46.393 103.415 103.416 103.415s103.416-46.392 103.416-103.415c0-36.235-18.379-69.074-49.205-88.071-.406-3.544-1.464-7.01-3.13-10.171l-5.549-10.526c-1.479-2.81-4.371-4.555-7.546-4.555-.001 0-.001 0-.002 0-3.174 0-6.066 1.744-7.547 4.554l-4.552 8.636c-8.417-2.169-17.112-3.283-25.885-3.283-4.709 0-9.417.326-14.065.958.611-.633 1.309-1.201 2.097-1.677 19.963-12.069 32.482-32.689 33.923-55.585 2.435.215 4.358 2.242 4.358 4.731v24.042c0 2.315 1.589 4.327 3.841 4.864 13.313 3.171 25.986 8.425 37.671 15.614.811.498 1.717.741 2.618.741 1.293 0 2.573-.5 3.537-1.465l17.008-17.008c1.863-1.86 4.892-1.858 6.751 0l5.131 5.131c1.951 1.953 5.119 1.953 7.07 0 1.953-1.952 1.953-5.118 0-7.07l-5.131-5.131c-5.759-5.761-15.131-5.763-20.892 0l-14.258 14.259c-10.488-6.052-21.676-10.688-33.348-13.823v-20.151c0-8.036-6.452-14.581-14.447-14.757-1.149-14.393-6.695-28.133-15.989-39.289-10.671-12.809-25.546-21.416-41.885-24.236-3.791-.658-7.549.871-9.81 3.98-2.256 3.104-2.548 7.141-.76 10.537l19.957 37.898c.622 1.182.747 2.534.352 3.81s-1.265 2.321-2.446 2.943l-40.077 21.11c-1.181.621-2.532.748-3.81.353-1.275-.396-2.321-1.265-2.943-2.445l-19.254-36.552c-1.83-3.474-5.396-5.505-9.317-5.325-3.935.189-7.308 2.575-8.803 6.226-3.456 8.438-5.209 17.373-5.209 26.559 0 12.066 3.011 23.569 8.544 33.683l-25.686 25.686c-5.761 5.76-5.761 15.132 0 20.892l14.256 14.257c-6.052 10.489-10.688 21.676-13.822 33.348h-20.152c-8.146 0-14.772 6.627-14.772 14.772v43.079c0 8.146 6.627 14.772 14.772 14.772h20.152c3.134 11.672 7.771 22.859 13.822 33.349l-14.257 14.256c-5.759 5.761-5.759 15.133.001 20.892l30.46 30.461c2.79 2.791 6.5 4.328 10.447 4.328 3.946 0 7.656-1.537 10.445-4.328l14.257-14.255c10.487 6.051 21.675 10.688 33.348 13.822v20.151c0 8.146 6.627 14.773 14.773 14.773h43.078c8.146 0 14.773-6.627 14.773-14.773v-20.151c11.674-3.135 22.86-7.771 33.348-13.822l14.256 14.255c2.79 2.791 6.5 4.328 10.446 4.328 3.947 0 7.657-1.537 10.446-4.328l30.461-30.461c5.76-5.759 5.76-15.131 0-20.892l-14.256-14.256c6.052-10.489 10.688-21.677 13.822-33.349h20.152c8.146 0 14.772-6.627 14.772-14.772v-43.079c.004-8.148-6.623-14.775-14.769-14.775zm-234.244-13.108v98.81c-8.968-14.338-14.16-31.268-14.16-49.389 0-17.55 4.973-34.679 14.16-49.421zm134.616 78.458c2.988 0 5.419 2.431 5.419 5.419 0 2.987-2.431 5.418-5.419 5.418h-34.752c-2.987 0-5.418-2.431-5.418-5.418 0-2.988 2.431-5.419 5.418-5.419zm-32.804 20.837h30.845c2.731 5.948 5.083 13.272 6.877 21.428-13.288 11.251-29.748 18.862-47.83 21.281 1.532-16.798 5.059-31.739 10.108-42.709zm70.86-49.875c0 24.399-9.407 46.64-24.78 63.296-1.506-5.746-3.271-10.993-5.285-15.678 4.444-2.708 7.428-7.586 7.428-13.161 0-8.502-6.917-15.419-15.419-15.419h-.957v-94.983c24.557 17.537 39.013 45.405 39.013 75.945zm-59.682-93.579 4.25-8.063 4.25 8.063c1.419 2.692 2.169 5.723 2.169 8.765v103.853h-12.837v-103.853c0-3.043.75-6.074 2.168-8.765zm-137.38-93.396 19.254 36.553c3.857 7.318 12.945 10.136 20.262 6.279l40.076-21.11c7.317-3.854 10.136-12.942 6.282-20.261l-19.937-37.902c14 2.418 26.751 9.799 35.903 20.783 9.267 11.123 14.201 25.244 13.894 39.763-.437 20.619-11.363 39.377-29.23 50.178-6.028 3.645-9.628 9.941-9.628 16.844v161.142c0 2.762 2.238 5 5 5s5-2.238 5-5v-157.208c5.506-.997 11.136-1.502 16.771-1.502 7.518 0 14.972.893 22.203 2.655-.413 1.953-.637 3.947-.637 5.947v103.853h-.958c-8.502 0-15.418 6.917-15.418 15.419 0 5.574 2.982 10.451 7.425 13.16-5.222 12.152-8.811 28.12-10.277 45.769-.777.019-1.557.03-2.338.03-27.438 0-52.15-11.892-69.256-30.792v-158.38c0-6.823-3.7-13.282-9.655-16.857-18.295-10.984-29.217-30.26-29.217-51.563-.001-7.88 1.501-15.541 4.481-22.8z"/></svg>